<?xml version="1.0" encoding="UTF-8"?>
<svg width="46px" height="46px" viewBox="0 0 46 46" version="1.1" xmlns="http://www.w3.org/2000/svg" xmlns:xlink="http://www.w3.org/1999/xlink">
    <title>自定义</title>
    <defs>
        <filter id="filter-1">
            <feColorMatrix in="SourceGraphic" type="matrix" values="0 0 0 0 0.423529 0 0 0 0 0.325490 0 0 0 0 0.694118 0 0 0 1.000000 0"></feColorMatrix>
        </filter>
    </defs>
    <g id="数据源icon" stroke="none" stroke-width="1" fill="none" fill-rule="evenodd">
        <g filter="url(#filter-1)" id="自定义">
            <g>
                <rect id="矩形" fill="#000000" fill-rule="nonzero" opacity="0" x="0" y="0" width="46" height="46"></rect>
                <path d="M30.2832231,18.1179765 C29.9949339,17.0735267 29.6409479,16.0841356 29.2455972,15.1426059 C25.5579195,15.9261569 24.3559581,12.8478662 25.9035296,10.6957212 C25.3278403,9.86435373 24.488428,9.27121383 23.3352244,8.97873729 C21.7876529,11.2572833 17.5656038,10.1099134 17.9440623,7 C16.7338186,7 15.5240896,7 14.3305509,7 C14.6349835,10.3319023 10.4616455,11.0360591 8.68413513,8.97873729 C7.81075134,9.53215758 6.61721261,9.76957546 6.36266087,10.9485681 C8.05772266,12.9029698 6.51015113,15.9577797 3.02059328,15.1426509 C2.64213475,16.0842256 2.27125668,17.0735717 2,18.1180215 C4.92219761,18.5612346 4.92219761,22.8655246 2,23.3087376 C2.27130346,24.3450906 2.64213479,25.3344817 3.02059328,26.2760114 C6.70827096,25.4924604 7.94312758,28.5707511 6.36266087,30.7237059 C6.94677284,31.5623605 7.77790294,32.1635972 8.94696915,32.4480219 C10.4945407,30.1694759 14.7090094,31.3168458 14.3305509,34.4348561 C15.5240896,34.4348561 16.7337718,34.4348561 17.9440623,34.4348561 C17.6313474,31.0875247 21.8129677,30.3907001 23.5990411,32.4480219 C24.4715827,31.8946016 25.6734037,31.64099 25.9035297,30.4700943 C24.224471,28.5075507 25.7720425,25.4689795 29.2455973,26.2760115 C29.6409011,25.3344368 29.9949339,24.3450906 30.2832231,23.3087377 C27.2369782,22.5883422 27.2369782,18.8302302 30.2832231,18.1179765 Z M16.1410968,25.8643312 C13.17833,25.8643312 10.7829235,23.5542075 10.7829235,20.7133346 C10.7829235,17.8643649 13.1782833,15.5623381 16.1410968,15.5623381 C19.0878605,15.5623381 21.500206,17.8643649 21.500206,20.7133346 C21.500206,23.5542075 19.0878605,25.8643312 16.1410968,25.8643312 Z M43,31.0874798 C42.9013612,30.5178658 42.7943465,29.9716877 42.6383868,29.4571773 C40.6383309,29.6467787 40.1771431,27.9378917 41.1650284,26.9015388 C40.8852087,26.4186062 40.489858,26.0547873 39.8973234,25.8327534 C38.9423333,26.9412134 36.752627,26.1017491 37.172263,24.4641594 C36.5384104,24.3847652 35.9045579,24.3215647 35.2546556,24.2502224 C35.2217604,26.0231196 32.9577475,26.1576624 32.1510899,24.9470921 C31.6327215,25.199894 30.998869,25.2630945 30.7933091,25.8643312 C31.5585084,27.0044139 30.5461974,28.5236995 28.7432319,27.8900753 C28.4802575,28.3649111 28.2248636,28.8640374 28.0107406,29.3939768 C29.525417,29.8056121 29.2455973,32.1003518 27.6820227,32.1554555 C27.7637693,32.7332113 27.8792535,33.2631058 28.027586,33.7776611 C30.0362049,33.5880596 30.4804071,35.2969467 29.5254169,36.3414414 C29.7723883,36.8162772 30.1676921,37.1800961 30.7518509,37.4021299 C31.7313135,36.2944796 33.888265,37.1485183 33.4845385,38.7942048 C34.1352363,38.8501182 34.7775582,38.9214155 35.3945186,39 C35.4518395,37.2116738 37.7158525,37.0852728 38.5226505,38.2723623 C39.0248754,38.0268476 39.6663083,37.9798408 39.8804312,37.3705072 C39.1235142,36.2304245 40.1274025,34.711139 41.9219454,35.3366663 C42.1773393,34.8618305 42.4327333,34.3635138 42.6544366,33.8408616 C41.099238,33.2712026 41.3295043,31.2851781 43,31.0874798 Z M34.9993552,34.3472751 C33.4272175,34.1730577 32.3162678,32.8044636 32.4890728,31.2932749 C32.6947262,29.7974703 34.0854958,28.7133009 35.6575398,28.8956151 C37.2219567,29.0698326 38.3657549,30.4221879 38.1518192,31.9415184 C37.9957191,33.44542 36.5712121,34.5214925 34.9993552,34.3472751 Z" id="形状" fill="#000000" fill-rule="nonzero"></path>
            </g>
        </g>
    </g>
</svg>