<?xml version="1.0" encoding="UTF-8"?>
<svg width="40px" height="48px" viewBox="0 0 40 48" version="1.1" xmlns="http://www.w3.org/2000/svg" xmlns:xlink="http://www.w3.org/1999/xlink">
    <title>火</title>
    <defs>
        <rect id="path-1" x="0" y="0" width="40" height="48"></rect>
        <linearGradient x1="50%" y1="0%" x2="50%" y2="100%" id="linearGradient-3">
            <stop stop-color="#F5A19C" offset="0%"></stop>
            <stop stop-color="#EE5A52" offset="100%"></stop>
        </linearGradient>
    </defs>
    <g id="页面-1" stroke="none" stroke-width="1" fill="none" fill-rule="evenodd">
        <g id="火">
            <mask id="mask-2" fill="white">
                <use xlink:href="#path-1"></use>
            </mask>
            <use id="蒙版" fill="#FFFFFF" opacity="0" xlink:href="#path-1"></use>
            <g id="编组-7" mask="url(#mask-2)">
                <g transform="translate(2.500000, 2.500000)">
                    <path d="M11.3700709,43.4825404 C7.95669029,41.9899521 5.98040224,39.4465242 5.44120673,35.8522566 C4.90201122,32.257989 5.58827564,29.3502419 7.5,27.1290153 C10.4548677,23.9602841 12.5236726,21.4678903 13.7064145,19.6518339 C14.8891564,17.8357775 15.453437,16.2851662 15.3992563,15 C17.781115,16.1128439 19.4720757,17.4106256 20.4721384,18.8933449 C21.4722012,20.3760643 22.5081616,23.1212878 23.5800197,27.1290153 C24.1763163,26.3796213 24.606953,25.7462977 24.8719299,25.2290445 C25.1369068,24.7117913 25.4251016,23.941906 25.7365143,22.9193885 C28.7656504,26.8345422 30.2802185,30.3928081 30.2802185,33.5941862 C30.2802185,36.7955642 29.0567216,39.9709359 26.609728,43.1203012 C23.0428121,41.6363426 20.4170794,40.0540121 18.7325296,38.3733099 C17.0479799,36.6926077 15.3726082,33.8094132 13.7064145,29.7237264 C12.4190578,32.0929254 11.6402766,34.0731506 11.3700709,35.6644021 C11.0998652,37.2556536 11.0998652,39.8616997 11.3700709,43.4825404 Z" id="路径-18" stroke="none" fill="url(#linearGradient-3)" fill-rule="evenodd"></path>
                    <circle id="椭圆形" stroke="none" fill="#EE5A52" fill-rule="evenodd" cx="8.7512015" cy="13.2591078" r="1.25"></circle>
                    <path d="M12.3689453,8.76723966 C13.5612139,6.75933182 14.3244853,5.20907207 14.6587593,4.11646039 C14.9683544,3.1045142 15.1345804,1.85277865 15.1574373,0.361253734 L15.1573576,0.361252514 C15.1590508,0.250764544 15.2499916,0.162568933 15.3604795,0.164262103 C15.398184,0.164839903 15.4349576,0.176061049 15.4665613,0.196632012 C19.2138656,2.63576501 21.6362335,5.49263422 22.7336649,8.76723966 C23.8102589,11.9796685 23.8584638,16.7614938 22.8782797,23.1127156 L22.878211,23.112705 C22.8445104,23.3310721 22.9942122,23.5354134 23.2125793,23.5691139 C23.3128931,23.5845954 23.4153414,23.5613688 23.4991705,23.5041393 C25.5480807,22.1053647 27.0407482,20.8443263 27.977173,19.7210243 C28.9848657,18.5122317 29.9051456,16.6995892 30.7380128,14.2830966 L30.7379913,14.2830892 C30.7739877,14.1786489 30.8878341,14.1231641 30.9922744,14.1591604 C31.0214968,14.1692322 31.0479874,14.1859394 31.0696672,14.2079706 C34.7228413,17.9203658 36.0482176,23.0922844 35.045796,29.7237264 C34.0646979,36.2141044 31.3573533,40.6980383 26.9237623,43.1755279 L26.9237647,43.1755322 C26.5701581,43.3731275 26.1407298,43.3789934 25.781858,43.1911304 C22.231882,41.3327815 19.7055224,39.5855686 18.202779,37.9494917 C16.6217306,36.228162 15.123343,33.4862403 13.707616,29.7237264 C12.3438297,32.1286026 11.490913,34.0763907 11.1488659,35.5670909 C10.8166226,37.0150644 10.8770464,39.5459681 11.3301374,43.1598019 L11.3303329,43.1597774 C11.3440876,43.2694843 11.266303,43.3695696 11.1565961,43.3833243 C11.1250357,43.3872813 11.0929867,43.3836612 11.0631041,43.3727641 C5.5014134,41.344605 2.03265144,37.5018249 0.656818239,31.8444238 C-0.744251979,26.0832486 0.0961629351,21.206925 3.17806298,17.215453" id="路径-17" stroke="#EE5A52" stroke-width="1.4" fill="none" stroke-linecap="round"></path>
                </g>
            </g>
        </g>
    </g>
</svg>