<?xml version="1.0" encoding="UTF-8"?>
<svg width="16px" height="16px" viewBox="0 0 16 16" version="1.1" xmlns="http://www.w3.org/2000/svg" xmlns:xlink="http://www.w3.org/1999/xlink">
    <title>火-灰</title>
    <defs>
        <filter color-interpolation-filters="auto" id="filter-1">
            <feColorMatrix in="SourceGraphic" type="matrix" values="0 0 0 0 0.600000 0 0 0 0 0.600000 0 0 0 0 0.600000 0 0 0 1.000000 0"></feColorMatrix>
        </filter>
        <rect id="path-2" x="0" y="0" width="16" height="16"></rect>
        <linearGradient x1="50%" y1="0%" x2="50%" y2="100%" id="linearGradient-4">
            <stop stop-color="#F5A19C" offset="0%"></stop>
            <stop stop-color="#EE5A52" offset="100%"></stop>
        </linearGradient>
    </defs>
    <g id="北极星" stroke="none" stroke-width="1" fill="none" fill-rule="evenodd">
        <g filter="url(#filter-1)" id="火-灰">
            <g>
                <mask id="mask-3" fill="white">
                    <use xlink:href="#path-2"></use>
                </mask>
                <use id="蒙版" fill="#FFFFFF" opacity="0" xlink:href="#path-2"></use>
                <g id="编组-7" mask="url(#mask-3)">
                    <g transform="translate(2.000000, 1.000000)">
                        <path d="M3.58100063,13.5521596 C2.50595738,13.0869661 1.88352601,12.2942585 1.71370653,11.1740367 C1.54388706,10.0538149 1.76002585,9.14756033 2.3621229,8.45527288 C3.29275766,7.46767761 3.94432716,6.69087574 4.3168314,6.12486728 C4.68933563,5.55885882 4.86705565,5.07558135 4.84999146,4.6750349 C5.60015717,5.02187384 6.13272477,5.42635214 6.44769426,5.8884698 C6.76266374,6.35058745 7.08893919,7.20618848 7.42652059,8.45527288 C7.61432404,8.22171 7.74995295,8.02432268 7.83340734,7.8631109 C7.91686173,7.70189913 8.0076286,7.46194974 8.10570796,7.14326275 C9.05973353,8.36349476 9.53674631,9.4724959 9.53674631,10.4702662 C9.53674631,11.4680365 9.15140633,12.4577014 8.38072636,13.4392609 C7.25732722,12.976757 6.43035341,12.4835936 5.89980495,11.9597709 C5.36925648,11.4359481 4.84159863,10.5373458 4.3168314,9.26396389 C3.91137877,10.0023697 3.66610185,10.6195445 3.58100063,11.1154883 C3.49589942,11.611432 3.49589942,12.4236558 3.58100063,13.5521596 Z" id="路径-18" stroke="none" fill="url(#linearGradient-4)" fill-rule="evenodd"></path>
                        <ellipse id="椭圆形" stroke="none" fill="#EE5A52" fill-rule="evenodd" cx="2.75618846" cy="4.13245278" rx="1" ry="1"></ellipse>
                        <path d="M3.89559586,2.73247676 C4.29613036,2.12657186 4.53652244,1.64340396 4.61677211,1.28297307 C4.67812271,1.0074249 4.72333655,0.692585705 4.75241364,0.338455477 L4.75231078,0.338447031 C4.76135448,0.228303743 4.85797462,0.14634633 4.96811791,0.155390025 C5.00271597,0.158230819 5.03597986,0.170023516 5.06464143,0.189609499 C6.13515005,0.921145201 6.83359004,1.76876762 7.15996139,2.73247676 C7.46470665,3.63232839 7.50782269,4.92728626 7.28930949,6.61735036 L7.28924004,6.61734138 C7.26090828,6.83647 7.41557969,7.03707627 7.63470831,7.06540804 C7.73619123,7.07852905 7.83884422,7.05226527 7.92155586,6.99201806 C8.31928566,6.70231143 8.6159013,6.42044933 8.81140279,6.14643177 C9.07587459,5.77574448 9.33724029,5.27760795 9.59549991,4.65202216 L9.59546487,4.65200769 C9.63762217,4.5498895 9.75458056,4.50128159 9.85669876,4.54343889 C9.88617485,4.55560746 9.9123146,4.5746467 9.93293835,4.59896902 C10.9107105,5.75209099 11.2789523,7.30708928 11.0376636,9.26396389 C10.8179268,11.046051 10.1253148,12.3459605 8.95982773,13.1636924 L8.95981637,13.1636762 C8.58449398,13.4270108 8.09192234,13.453463 7.6905565,13.2318384 C6.79576728,12.7377572 6.14323516,12.2697044 5.73296014,11.8276799 C5.2350094,11.2911948 4.76309262,10.4366228 4.31720981,9.26396389 C3.88699649,10.0354761 3.61837061,10.6425413 3.51133218,11.0851594 C3.41422176,11.4867239 3.42443311,12.2008318 3.54196623,13.2274832 L3.54209041,13.227469 C3.55466153,13.3372777 3.47583487,13.4364862 3.36602614,13.4490573 C3.33306751,13.4528305 3.29968785,13.4483513 3.26888994,13.4360226 C1.64281096,12.7850873 0.622135891,11.6147196 0.20686472,9.92491952 C-0.234401952,8.12933983 0.0302864894,6.60954096 1.00093004,5.36552291" id="路径-17" stroke="#EE5A52" stroke-width="1" fill="none" stroke-linecap="round"></path>
                    </g>
                </g>
            </g>
        </g>
    </g>
</svg>