<?xml version="1.0" encoding="UTF-8"?>
<svg width="653px" height="411px" viewBox="0 0 653 411" version="1.1" xmlns="http://www.w3.org/2000/svg" xmlns:xlink="http://www.w3.org/1999/xlink">
    <title>编组 11备份 2</title>
    <defs>
        <path d="M108,335 L108,14.5717779 L108,14.5717779 C108,6.52357856 116.539345,0 127.074414,0 L571.925586,0 C582.460655,0 591,6.52357856 591,14.5717779 L591,335 C591,343.836556 583.836556,351 575,351 L124,351 C115.163444,351 108,343.836556 108,335 Z" id="path-1"></path>
        <filter x="-9.5%" y="-12.5%" width="119.0%" height="126.2%" filterUnits="objectBoundingBox" id="filter-2">
            <feOffset dx="0" dy="2" in="SourceAlpha" result="shadowOffsetOuter1"></feOffset>
            <feGaussianBlur stdDeviation="15" in="shadowOffsetOuter1" result="shadowBlurOuter1"></feGaussianBlur>
            <feColorMatrix values="0 0 0 0 0   0 0 0 0 0   0 0 0 0 0  0 0 0 0.1 0" type="matrix" in="shadowBlurOuter1"></feColorMatrix>
        </filter>
        <path d="M0,28 L0,16.7054436 C0,7.47805628 7.49332853,0 16.7362597,0 L466.26374,0 C475.506671,0 483,7.47805628 483,16.7054436 L483,28 L0,28 Z" id="path-3"></path>
        <linearGradient x1="0%" y1="50.1680319%" x2="100%" y2="50%" id="linearGradient-5">
            <stop stop-color="#0019F4" offset="0%"></stop>
            <stop stop-color="#7200F1" offset="100%"></stop>
        </linearGradient>
        <path d="M0,28 L0,16.7054436 C0,7.47805628 7.49332853,0 16.7362597,0 L186.078529,0 L312.996948,0 L466.26374,0 C475.506671,0 483,7.47805628 483,16.7054436 L483,28 L0,28 Z" id="path-6"></path>
        <filter x="-17.7%" y="-173.2%" width="133.3%" height="675.0%" filterUnits="objectBoundingBox" id="filter-7">
            <feOffset dx="-5" dy="32" in="SourceAlpha" result="shadowOffsetOuter1"></feOffset>
            <feGaussianBlur stdDeviation="21.5" in="shadowOffsetOuter1" result="shadowBlurOuter1"></feGaussianBlur>
            <feColorMatrix values="0 0 0 0 0.2331566   0 0 0 0 0   0 0 0 0 0.494946466  0 0 0 0.2 0" type="matrix" in="shadowBlurOuter1"></feColorMatrix>
        </filter>
        <path d="M135.492004,322 C133.010345,322 131,319.620254 131,316.68849 L131,242.31151 C131,239.377105 133.010345,237 135.492004,237 L427.507996,237 C429.989655,237 432,239.377105 432,242.31151 L432,316.68849 C432,319.620254 429.989655,322 427.507996,322 L135.492004,322 Z" id="path-8"></path>
        <filter x="-5.3%" y="-16.5%" width="110.6%" height="137.6%" filterUnits="objectBoundingBox" id="filter-9">
            <feOffset dx="0" dy="2" in="SourceAlpha" result="shadowOffsetOuter1"></feOffset>
            <feGaussianBlur stdDeviation="5" in="shadowOffsetOuter1" result="shadowBlurOuter1"></feGaussianBlur>
            <feColorMatrix values="0 0 0 0 0   0 0 0 0 0   0 0 0 0 0  0 0 0 0.12 0" type="matrix" in="shadowBlurOuter1"></feColorMatrix>
        </filter>
        <path d="M171.403293,94 L2.59670657,94 C1.16212626,94 0,91.3682804 0,88.1260953 L0,5.87390467 C0,2.62879871 1.16212626,0 2.59670657,0 L171.403293,0 C172.837874,0 174,2.62879871 174,5.87390467 L174,88.1260953 C174,91.3682804 172.837874,94 171.403293,94" id="path-10"></path>
        <filter x="-9.2%" y="-14.9%" width="118.4%" height="134.0%" filterUnits="objectBoundingBox" id="filter-11">
            <feOffset dx="0" dy="2" in="SourceAlpha" result="shadowOffsetOuter1"></feOffset>
            <feGaussianBlur stdDeviation="5" in="shadowOffsetOuter1" result="shadowBlurOuter1"></feGaussianBlur>
            <feColorMatrix values="0 0 0 0 0   0 0 0 0 0   0 0 0 0 0  0 0 0 0.12 0" type="matrix" in="shadowBlurOuter1"></feColorMatrix>
        </filter>
        <linearGradient x1="0%" y1="54.422959%" x2="100%" y2="50%" id="linearGradient-12">
            <stop stop-color="#0019F4" offset="0%"></stop>
            <stop stop-color="#7200F1" offset="100%"></stop>
        </linearGradient>
        <path d="M29.8330861,60.7378915 C32.1129679,58.3001104 34.696834,55.7726273 38.0139955,55.2766286 C42.7017525,54.5801197 46.8295386,58.1101534 50.2906926,61.313039 C54.4264783,65.1464762 58.9675763,69.0194878 64.5379543,70.0457831 C71.3989321,71.3121629 78.1932466,68.0011074 84.3129295,64.6821369 C89.6433199,61.7905697 95.0643724,58.7037689 98.8535093,53.9996956 C102.503987,49.4723878 104.549214,43.5626154 109.258303,40.1222836 C110.087594,39.5154766 111.020879,38.9878183 112.044826,38.8690952 C113.820734,38.6633085 115.511313,39.7133484 116.759248,40.9797282 C120.020412,44.2960603 121.188352,49.0317932 122.876264,53.3453994 C124.564177,57.6563673 127.409363,62.1361859 131.971793,63.1545663 C137.904819,64.4789885 143.277874,59.3132142 146.299051,54.0867592 C149.320227,48.8629425 151.674772,42.7315536 156.943832,39.7239016 C158.573081,38.7925848 160.682305,38.2490968 162.290222,39.2147114 C164.06613,40.2779427 164.436777,42.6233837 164.626101,44.6680594 C165.412727,53.1501658 166.196686,61.6322722 166.983312,70.1143787 C167.311295,73.6391358 167.551283,82.0869444 165.48739,84.9785116 L11.6206966,84.9785116 C17.2764035,77.3934243 23.3587549,67.6502146 29.8330861,60.7378915 Z" id="path-13"></path>
        <filter x="-55.0%" y="-104.8%" width="203.5%" height="447.9%" filterUnits="objectBoundingBox" id="filter-14">
            <feOffset dx="-5" dy="32" in="SourceAlpha" result="shadowOffsetOuter1"></feOffset>
            <feGaussianBlur stdDeviation="21.5" in="shadowOffsetOuter1" result="shadowBlurOuter1"></feGaussianBlur>
            <feColorMatrix values="0 0 0 0 0.2331566   0 0 0 0 0   0 0 0 0 0.494946466  0 0 0 0.2 0" type="matrix" in="shadowBlurOuter1"></feColorMatrix>
        </filter>
        <path d="M35.3610037,0 C29.038369,0 23.9100393,5.13918058 23.9100393,11.4811481 L23.9100393,126.540654 C23.9100393,132.879955 29.038369,138.021802 35.3610037,138.021802 L334.549036,138.021802 C340.87433,138.021802 346,132.879955 346,126.540654 L346,11.4811481 C346,5.13918058 340.87433,0 334.549036,0 L35.3610037,0 Z" id="path-15"></path>
        <filter x="-5.0%" y="-10.1%" width="109.9%" height="123.2%" filterUnits="objectBoundingBox" id="filter-16">
            <feOffset dx="0" dy="2" in="SourceAlpha" result="shadowOffsetOuter1"></feOffset>
            <feGaussianBlur stdDeviation="5" in="shadowOffsetOuter1" result="shadowBlurOuter1"></feGaussianBlur>
            <feColorMatrix values="0 0 0 0 0   0 0 0 0 0   0 0 0 0 0  0 0 0 0.12 0" type="matrix" in="shadowBlurOuter1"></feColorMatrix>
        </filter>
    </defs>
    <g id="页面-1" stroke="none" stroke-width="1" fill="none" fill-rule="evenodd">
        <g id="编组-11备份-2" transform="translate(0.000000, 28.000000)">
            <path d="M67.354,153.398165 L67.492,153 C67.928,153.631193 68.332,154.282569 68.646,155 L67.354,153.398165" id="Fill-26" fill="#CECFDF"></path>
            <g id="Fill-41">
                <use fill="black" fill-opacity="1" filter="url(#filter-2)" xlink:href="#path-1"></use>
                <use fill="#FFFFFF" fill-rule="evenodd" xlink:href="#path-1"></use>
            </g>
            <g id="编组" transform="translate(108.000000, 0.000000)">
                <mask id="mask-4" fill="white">
                    <use xlink:href="#path-3"></use>
                </mask>
                <g id="Clip-43"></g>
                <g id="Fill-42" mask="url(#mask-4)">
                    <use fill="black" fill-opacity="1" filter="url(#filter-7)" xlink:href="#path-6"></use>
                    <use fill="url(#linearGradient-5)" fill-rule="evenodd" xlink:href="#path-6"></use>
                </g>
            </g>
            <path d="M150,14.9974619 C150,17.7614213 147.761421,20 145,20 C142.236041,20 140,17.7614213 140,14.9974619 C140,12.2385787 142.236041,10 145,10 C147.761421,10 150,12.2385787 150,14.9974619" id="Fill-44" fill="#FFFFFE"></path>
            <path d="M174,14.9974619 C174,17.7614213 171.761421,20 169,20 C166.238579,20 164,17.7614213 164,14.9974619 C164,12.2385787 166.238579,10 169,10 C171.761421,10 174,12.2385787 174,14.9974619" id="Fill-45" fill="#FFFFFE"></path>
            <path d="M198,14.9974619 C198,17.7614213 195.758883,20 193,20 C190.236041,20 188,17.7614213 188,14.9974619 C188,12.2385787 190.236041,10 193,10 C195.758883,10 198,12.2385787 198,14.9974619" id="Fill-46" fill="#FFFFFE"></path>
            <g id="编组-22" transform="translate(559.000000, 55.000000)" fill="#DFDFE9">
                <path d="M9,4.24134807 C9,6.58158684 6.98736576,8.48001852 4.5,8.48001852 C2.01263424,8.48001852 0,6.58158684 0,4.24134807 C0,1.89843168 2.01263424,0 4.5,0 C6.98736576,0 9,1.89843168 9,4.24134807" id="Fill-47"></path>
                <path d="M9,29.1458799 C9,31.4861187 6.98736576,33.3845503 4.5,33.3845503 C2.01263424,33.3845503 0,31.4861187 0,29.1458799 C0,26.8029635 2.01263424,24.9045318 4.5,24.9045318 C6.98736576,24.9045318 9,26.8029635 9,29.1458799" id="Fill-48"></path>
                <path d="M9,54.0477341 C9,56.3906505 6.98736576,58.2890822 4.5,58.2890822 C2.01263424,58.2890822 0,56.3906505 0,54.0477341 C0,51.7074953 2.01263424,49.8090636 4.5,49.8090636 C6.98736576,49.8090636 9,51.7074953 9,54.0477341" id="Fill-49"></path>
                <path d="M9,78.9522659 C9,81.2951823 6.98736576,83.193614 4.5,83.193614 C2.01263424,83.193614 0,81.2951823 0,78.9522659 C0,76.6120271 2.01263424,74.7135955 4.5,74.7135955 C6.98736576,74.7135955 9,76.6120271 9,78.9522659" id="Fill-50"></path>
                <path d="M9,103.856798 C9,106.199714 6.98736576,108.098146 4.5,108.098146 C2.01263424,108.098146 0,106.199714 0,103.856798 C0,101.516559 2.01263424,99.6181273 4.5,99.6181273 C6.98736576,99.6181273 9,101.516559 9,103.856798" id="Fill-51"></path>
                <path d="M9,128.76133 C9,131.101568 6.98736576,133 4.5,133 C2.01263424,133 0,131.101568 0,128.76133 C0,126.418413 2.01263424,124.519981 4.5,124.519981 C6.98736576,124.519981 9,126.418413 9,128.76133" id="Fill-52"></path>
            </g>
            <g id="Fill-99" transform="translate(281.500000, 279.500000) scale(-1, 1) translate(-281.500000, -279.500000) ">
                <use fill="black" fill-opacity="1" filter="url(#filter-9)" xlink:href="#path-8"></use>
                <use fill="#FCFBFC" fill-rule="evenodd" xlink:href="#path-8"></use>
            </g>
            <g id="编组-3" transform="translate(447.000000, 204.000000)">
                <g id="Fill-99备份" transform="translate(87.000000, 47.000000) scale(-1, 1) translate(-87.000000, -47.000000) ">
                    <use fill="black" fill-opacity="1" filter="url(#filter-11)" xlink:href="#path-10"></use>
                    <use fill="#FCFBFC" fill-rule="evenodd" xlink:href="#path-10"></use>
                </g>
                <polygon id="Fill-96" fill="#F2F2F5" transform="translate(125.005225, 15.678335) scale(-1, 1) translate(-125.005225, -15.678335) " points="90.4310171 18.7242421 159.579434 18.7242421 159.579434 12.6324276 90.4310171 12.6324276"></polygon>
                <polygon id="Fill-97" fill="#AFB0CD" transform="translate(142.292330, 28.780089) scale(-1, 1) translate(-142.292330, -28.780089) " points="125.005225 31.8259966 159.579434 31.8259966 159.579434 25.734182 125.005225 25.734182"></polygon>
                <g id="Fill-98" opacity="0.5">
                    <use fill="black" fill-opacity="1" filter="url(#filter-14)" xlink:href="#path-13"></use>
                    <use fill="url(#linearGradient-12)" fill-rule="evenodd" xlink:href="#path-13"></use>
                </g>
            </g>
            <polygon id="Fill-100" fill="#DFDFE9" transform="translate(374.000000, 280.000000) scale(-1, 1) translate(-374.000000, -280.000000) " points="332 306 416 306 416 254 332 254"></polygon>
            <polyline id="Fill-101" fill="#AFB0CD" transform="translate(399.500000, 289.500000) scale(-1, 1) translate(-399.500000, -289.500000) " points="395.88189 273 383.062992 291.59348 383 306 416 306 395.88189 273"></polyline>
            <polyline id="Fill-102" fill="#FFFFFE" transform="translate(403.000000, 278.500000) scale(-1, 1) translate(-403.000000, -278.500000) " points="405.56455 281.478468 406.807883 283.351459 409 280.467156 403.375266 272 397 280.38718 398.971206 283.351459 400.477932 281.367533 402.890961 285 405.56455 281.478468"></polyline>
            <polygon id="Fill-103" fill="#AFB0CD" transform="translate(376.000000, 295.500000) scale(-1, 1) translate(-376.000000, -295.500000) " points="374.095821 285 388 306 368.599388 306 364 299.748365"></polygon>
            <path d="M366,272.498637 C366,277.745374 361.745374,282 356.498637,282 C351.251901,282 347,277.745374 347,272.498637 C347,267.251901 351.251901,263 356.498637,263 C361.745374,263 366,267.251901 366,272.498637" id="Fill-104" fill="#CECFDF" transform="translate(356.500000, 272.500000) scale(-1, 1) translate(-356.500000, -272.500000) "></path>
            <polyline id="Fill-105" fill="#FFFFFE" transform="translate(378.000000, 290.500000) scale(-1, 1) translate(-378.000000, -290.500000) " points="380.56455 293.478468 381.807883 295.351459 384 292.467156 378.244985 284 372 292.3846 373.968374 295.351459 375.4751 293.367533 377.888128 297 380.56455 293.478468"></polyline>
            <polygon id="Fill-106" fill="#F2F2F5" transform="translate(234.500000, 256.500000) scale(-1, 1) translate(-234.500000, -256.500000) " points="147 259 322 259 322 254 147 254"></polygon>
            <polygon id="Fill-107" fill="#F2F2F5" transform="translate(234.500000, 268.500000) scale(-1, 1) translate(-234.500000, -268.500000) " points="147 271 322 271 322 266 147 266"></polygon>
            <polygon id="Fill-108" fill="#F2F2F5" transform="translate(234.500000, 281.500000) scale(-1, 1) translate(-234.500000, -281.500000) " points="147 284 322 284 322 279 147 279"></polygon>
            <polygon id="Fill-108" fill="#FADBCD" transform="translate(289.000000, 302.500000) scale(-1, 1) translate(-289.000000, -302.500000) " points="256 305 322 305 322 300 256 300"></polygon>
            <g id="编组-23" transform="translate(456.000000, 93.000000)">
                <path d="M42,20.9986591 C42,32.5975353 32.5975353,42 21.0013409,42 C9.40246472,42 0,32.5975353 0,20.9986591 C0,9.40246472 9.40246472,0 21.0013409,0 C32.5975353,0 42,9.40246472 42,20.9986591" id="Fill-115" fill="#DFDFE9"></path>
                <polyline id="Fill-116" fill="#FFFFFE" points="18.2229743 29.5080774 10.9284209 22.213524 15.0959709 18.0459741 18.2229743 21.1756593 26.9040291 12.4892408 31.0715791 16.6567908 18.2229743 29.5080774"></polyline>
            </g>
            <g id="编组-20" transform="translate(219.000000, 144.000000) scale(-1, 1) translate(-219.000000, -144.000000) translate(46.000000, 64.000000)">
                <path d="M273.31497,160 L10.8790812,160 C4.87031727,160 0,155.116845 0,149.094909 L0,29.4402774 C0,23.4156749 4.87031727,18.5351869 10.8790812,18.5351869 L273.31497,18.5351869 L11.6185395,18.5351869 C5.62839505,18.5351869 0.774037316,23.4023402 0.774037316,29.4082742 L0.774037316,148.417508 C0.774037316,154.423442 5.62839505,159.290596 11.6185395,159.290596 L273.31497,159.290596 L273.31497,160" id="Fill-117" fill="#FCFBFC"></path>
                <path d="M273.31497,159.290596 L11.6185395,159.290596 C5.62839505,159.290596 0.774037316,154.423442 0.774037316,148.417508 L0.774037316,29.4082742 C0.774037316,23.4023402 5.62839505,18.5351869 11.6185395,18.5351869 L273.31497,18.5351869 L12.3606578,18.5351869 C6.38647284,18.5351869 1.54541471,23.3890056 1.54541471,29.3789379 L1.54541471,147.73744 C1.54541471,153.727373 6.38647284,158.583858 12.3606578,158.583858 L273.31497,158.583858 L273.31497,159.290596" id="Fill-118" fill="#FCFBFC"></path>
                <path d="M273.31497,158.583858 L12.3606578,158.583858 C6.38647284,158.583858 1.54541471,153.727373 1.54541471,147.73744 L1.54541471,29.3789379 C1.54541471,23.3890056 6.38647284,18.5351869 12.3606578,18.5351869 L273.31497,18.5351869 L13.102776,18.5351869 C7.14455062,18.5351869 2.3167921,23.3756709 2.3167921,29.3469347 L2.3167921,147.060039 C2.3167921,153.03397 7.14455062,157.874454 13.102776,157.874454 L273.31497,157.874454 L273.31497,158.583858" id="Fill-119" fill="#FCFBFC"></path>
                <path d="M273.31497,157.874454 L13.102776,157.874454 C7.14455062,157.874454 2.3167921,153.03397 2.3167921,147.060039 L2.3167921,29.3469347 C2.3167921,23.3756709 7.14455062,18.5351869 13.102776,18.5351869 L273.31497,18.5351869 L13.8422343,18.5351869 C7.9026284,18.5351869 3.0881695,23.3623362 3.0881695,29.3175984 L3.0881695,146.382638 C3.0881695,152.3379 7.9026284,157.16505 13.8422343,157.16505 L273.31497,157.16505 L273.31497,157.874454" id="Fill-120" fill="#FCFBFC"></path>
                <path d="M273.31497,157.16505 L13.8422343,157.16505 C7.9026284,157.16505 3.0881695,152.3379 3.0881695,146.382638 L3.0881695,29.3175984 C3.0881695,23.3623362 7.9026284,18.5351869 13.8422343,18.5351869 L273.31497,18.5351869 L14.5843526,18.5351869 C8.66070619,18.5351869 3.85954689,23.3463346 3.85954689,29.2855952 L3.85954689,145.705237 C3.85954689,151.644498 8.66070619,156.458312 14.5843526,156.458312 L273.31497,156.458312 L273.31497,157.16505" id="Fill-121" fill="#FCFBFC"></path>
                <path d="M273.31497,156.458312 L14.5843526,156.458312 C8.66070619,156.458312 3.85954689,151.644498 3.85954689,145.705237 L3.85954689,29.2855952 C3.85954689,23.3463346 8.66070619,18.5351869 14.5843526,18.5351869 L273.31497,18.5351869 L15.3264708,18.5351869 C9.41878397,18.5351869 4.63358421,23.333 4.63358421,29.256259 L4.63358421,145.027836 C4.63358421,150.948428 9.41878397,155.748908 15.3264708,155.748908 L273.31497,155.748908 L273.31497,156.458312" id="Fill-122" fill="#FBFAFB"></path>
                <path d="M273.31497,155.748908 L15.3264708,155.748908 C9.41878397,155.748908 4.63358421,150.948428 4.63358421,145.027836 L4.63358421,29.256259 C4.63358421,23.333 9.41878397,18.5351869 15.3264708,18.5351869 L273.31497,18.5351869 L16.0659292,18.5351869 C10.1768618,18.5351869 5.4049616,23.3196653 5.4049616,29.2242558 L5.4049616,144.350435 C5.4049616,150.255026 10.1768618,155.042171 16.0659292,155.042171 L273.31497,155.042171 L273.31497,155.748908" id="Fill-123" fill="#FAF9FA"></path>
                <path d="M273.31497,155.042171 L16.0659292,155.042171 C10.1768618,155.042171 5.4049616,150.255026 5.4049616,144.350435 L5.4049616,29.2242558 C5.4049616,23.3196653 10.1768618,18.5351869 16.0659292,18.5351869 L273.31497,18.5351869 L16.8080474,18.5351869 C10.9349395,18.5351869 6.17633899,23.3063306 6.17633899,29.1922526 L6.17633899,143.673034 C6.17633899,149.558956 10.9349395,154.332767 16.8080474,154.332767 L273.31497,154.332767 L273.31497,155.042171" id="Fill-124" fill="#FAF9FA"></path>
                <path d="M273.31497,154.332767 L16.8080474,154.332767 C10.9349395,154.332767 6.17633899,149.558956 6.17633899,143.673034 L6.17633899,29.1922526 C6.17633899,23.3063306 10.9349395,18.5351869 16.8080474,18.5351869 L273.31497,18.5351869 L17.5475057,18.5351869 C11.6930173,18.5351869 6.94771639,23.292996 6.94771639,29.1629163 L6.94771639,142.995633 C6.94771639,148.865553 11.6930173,153.623362 17.5475057,153.623362 L273.31497,153.623362 L273.31497,154.332767" id="Fill-125" fill="#FAF8F9"></path>
                <path d="M273.31497,153.623362 L17.5475057,153.623362 C11.6930173,153.623362 6.94771639,148.865553 6.94771639,142.995633 L6.94771639,29.1629163 C6.94771639,23.292996 11.6930173,18.5351869 17.5475057,18.5351869 L273.31497,18.5351869 L18.289624,18.5351869 C12.4510951,18.5351869 7.71909378,23.2796613 7.71909378,29.1309131 L7.71909378,142.318232 C7.71909378,148.169484 12.4510951,152.916625 18.289624,152.916625 L273.31497,152.916625 L273.31497,153.623362" id="Fill-126" fill="#F9F8FA"></path>
                <path d="M273.31497,152.916625 L18.289624,152.916625 C12.4510951,152.916625 7.71909378,148.169484 7.71909378,142.318232 L7.71909378,29.1309131 C7.71909378,23.2796613 12.4510951,18.5351869 18.289624,18.5351869 L273.31497,18.5351869 L19.0317422,18.5351869 C13.2091729,18.5351869 8.49047118,23.2663266 8.49047118,29.1015768 L8.49047118,141.640831 C8.49047118,147.476081 13.2091729,152.207221 19.0317422,152.207221 L273.31497,152.207221 L273.31497,152.916625" id="Fill-127" fill="#F9F7F9"></path>
                <path d="M273.31497,152.207221 L19.0317422,152.207221 C13.2091729,152.207221 8.49047118,147.476081 8.49047118,141.640831 L8.49047118,29.1015768 C8.49047118,23.2663266 13.2091729,18.5351869 19.0317422,18.5351869 L273.31497,18.5351869 L19.7712006,18.5351869 C13.9672507,18.5351869 9.26450849,23.250325 9.26450849,29.0695736 L9.26450849,140.96343 C9.26450849,146.782678 13.9672507,151.497816 19.7712006,151.497816 L273.31497,151.497816 L273.31497,152.207221" id="Fill-128" fill="#F8F6F8"></path>
                <path d="M273.31497,151.497816 L19.7712006,151.497816 C13.9672507,151.497816 9.26450849,146.782678 9.26450849,140.96343 L9.26450849,29.0695736 C9.26450849,23.250325 13.9672507,18.5351869 19.7712006,18.5351869 L273.31497,18.5351869 L20.5133188,18.5351869 C14.7253285,18.5351869 10.0358859,23.2369904 10.0358859,29.0402374 L10.0358859,140.286029 C10.0358859,146.086609 14.7253285,150.791079 20.5133188,150.791079 L273.31497,150.791079 L273.31497,151.497816" id="Fill-129" fill="#F7F5F7"></path>
                <path d="M273.31497,150.791079 L20.5133188,150.791079 C14.7253285,150.791079 10.0358859,146.086609 10.0358859,140.286029 L10.0358859,29.0402374 C10.0358859,23.2369904 14.7253285,18.5351869 20.5133188,18.5351869 L273.31497,18.5351869 L21.2554371,18.5351869 C15.4834062,18.5351869 10.8072633,23.2236557 10.8072633,29.0082342 L10.8072633,139.605961 C10.8072633,145.393206 15.4834062,150.081675 21.2554371,150.081675 L273.31497,150.081675 L273.31497,150.791079" id="Fill-130" fill="#F5F3F6"></path>
                <path d="M273.31497,150.081675 L21.2554371,150.081675 C15.4834062,150.081675 10.8072633,145.393206 10.8072633,139.605961 L10.8072633,29.0082342 C10.8072633,23.2236557 15.4834062,18.5351869 21.2554371,18.5351869 L273.31497,18.5351869 L21.9948954,18.5351869 C16.241484,18.5351869 11.5786407,23.210321 11.5786407,28.9788979 L11.5786407,138.92856 C11.5786407,144.697136 16.241484,149.372271 21.9948954,149.372271 L273.31497,149.372271 L273.31497,150.081675" id="Fill-131" fill="#F4F3F6"></path>
                <path d="M273.31497,149.372271 L21.9948954,149.372271 C16.241484,149.372271 11.5786407,144.697136 11.5786407,138.92856 L11.5786407,28.9788979 C11.5786407,23.210321 16.241484,18.5351869 21.9948954,18.5351869 L273.31497,18.5351869 L22.7370137,18.5351869 C16.9995618,18.5351869 12.3500181,23.1969864 12.3500181,28.9468947 L12.3500181,138.251158 C12.3500181,144.003734 16.9995618,148.665533 22.7370137,148.665533 L273.31497,148.665533 L273.31497,149.372271" id="Fill-132" fill="#F4F2F5"></path>
                <path d="M273.31497,148.665533 L22.7370137,148.665533 C16.9995618,148.665533 12.3500181,144.003734 12.3500181,138.251158 L12.3500181,28.9468947 C12.3500181,23.1969864 16.9995618,18.5351869 22.7370137,18.5351869 L273.31497,18.5351869 L23.4791319,18.5351869 C17.7602995,18.5351869 13.1240554,23.1809848 13.1240554,28.9148915 L13.1240554,137.573757 C13.1240554,143.307664 17.7602995,147.956129 23.4791319,147.956129 L273.31497,147.956129 L273.31497,148.665533" id="Fill-133" fill="#F0F0F4"></path>
                <path d="M273.31497,147.956129 L23.4791319,147.956129 C17.7602995,147.956129 13.1240554,143.307664 13.1240554,137.573757 L13.1240554,28.9148915 C13.1240554,23.1809848 17.7602995,18.5351869 23.4791319,18.5351869 L273.31497,18.5351869 L24.2185902,18.5351869 C18.5183773,18.5351869 13.8954328,23.1676501 13.8954328,28.8855552 L13.8954328,136.896356 C13.8954328,142.614261 18.5183773,147.249392 24.2185902,147.249392 L273.31497,147.249392 L273.31497,147.956129" id="Fill-134" fill="#EFEEF3"></path>
                <path d="M273.31497,147.249392 L24.2185902,147.249392 C18.5183773,147.249392 13.8954328,142.614261 13.8954328,136.896356 L13.8954328,28.8855552 C13.8954328,23.1676501 18.5183773,18.5351869 24.2185902,18.5351869 L273.31497,18.5351869 L24.9607085,18.5351869 C19.2764551,18.5351869 14.6668102,23.1543154 14.6668102,28.853552 L14.6668102,136.218955 C14.6668102,141.918192 19.2764551,146.539987 24.9607085,146.539987 L273.31497,146.539987 L273.31497,147.249392" id="Fill-135" fill="#ECEDF2"></path>
                <path d="M273.31497,146.539987 L24.9607085,146.539987 C19.2764551,146.539987 14.6668102,141.918192 14.6668102,136.218955 L14.6668102,28.853552 C14.6668102,23.1543154 19.2764551,18.5351869 24.9607085,18.5351869 L273.31497,18.5351869 L25.7001668,18.5351869 C20.0345329,18.5351869 15.4381876,23.1409808 15.4381876,28.8242158 L15.4381876,135.541554 C15.4381876,141.224789 20.0345329,145.830583 25.7001668,145.830583 L273.31497,145.830583 L273.31497,146.539987" id="Fill-136" fill="#EAEAF0"></path>
                <path d="M273.31497,145.830583 L25.7001668,145.830583 C20.0345329,145.830583 15.4381876,141.224789 15.4381876,135.541554 L15.4381876,28.8242158 C15.4381876,23.1409808 20.0345329,18.5351869 25.7001668,18.5351869 L273.31497,18.5351869 L26.4422851,18.5351869 C20.7926106,18.5351869 16.209565,23.1276461 16.209565,28.7922126 L16.209565,134.864153 C16.209565,140.52872 20.7926106,145.123846 26.4422851,145.123846 L273.31497,145.123846 L273.31497,145.830583" id="Fill-137" fill="#E8E7EE"></path>
                <path d="M273.31497,145.123846 L26.4422851,145.123846 C20.7926106,145.123846 16.209565,140.52872 16.209565,134.864153 L16.209565,28.7922126 C16.209565,23.1276461 20.7926106,18.5351869 26.4422851,18.5351869 L273.31497,18.5351869 L27.1844033,18.5351869 C21.5506884,18.5351869 16.9836023,23.1143114 16.9836023,28.7628763 L16.9836023,134.186752 C16.9836023,139.835317 21.5506884,144.414441 27.1844033,144.414441 L273.31497,144.414441 L273.31497,145.123846" id="Fill-138" fill="#E6E6ED"></path>
                <path d="M273.31497,144.414441 L27.1844033,144.414441 C21.5506884,144.414441 16.9836023,139.835317 16.9836023,134.186752 L16.9836023,28.7628763 C16.9836023,23.1143114 21.5506884,18.5351869 27.1844033,18.5351869 L273.31497,18.5351869 L27.9238617,18.5351869 C22.3087662,18.5351869 17.7549797,23.0983098 17.7549797,28.7308731 L17.7549797,133.509351 C17.7549797,139.139247 22.3087662,143.705037 27.9238617,143.705037 L273.31497,143.705037 L273.31497,144.414441" id="Fill-139" fill="#E5E4EC"></path>
                <path d="M273.31497,143.705037 L27.9238617,143.705037 C22.3087662,143.705037 17.7549797,139.139247 17.7549797,133.509351 L17.7549797,28.7308731 C17.7549797,23.0983098 22.3087662,18.5351869 27.9238617,18.5351869 L273.31497,18.5351869 L28.6659799,18.5351869 C23.066844,18.5351869 18.5263571,23.0849752 18.5263571,28.7015368 L18.5263571,132.83195 C18.5263571,138.445845 23.066844,142.9983 28.6659799,142.9983 L273.31497,142.9983 L273.31497,143.705037" id="Fill-140" fill="#E1E1EA"></path>
                <path d="M273.31497,142.9983 L28.6659799,142.9983 C23.066844,142.9983 18.5263571,138.445845 18.5263571,132.83195 L18.5263571,28.7015368 C18.5263571,23.0849752 23.066844,18.5351869 28.6659799,18.5351869 L273.31497,18.5351869 L29.4080982,18.5351869 C23.8249218,18.5351869 19.2977345,23.0716405 19.2977345,28.6695336 L19.2977345,132.151882 C19.2977345,137.749775 23.8249218,142.288896 29.4080982,142.288896 L273.31497,142.288896 L273.31497,142.9983" id="Fill-141" fill="#DEDDE7"></path>
                <path d="M273.31497,142.288896 L29.4080982,142.288896 C23.8249218,142.288896 19.2977345,137.749775 19.2977345,132.151882 L19.2977345,28.6695336 C19.2977345,23.0716405 23.8249218,18.5351869 29.4080982,18.5351869 L273.31497,18.5351869 L30.1475565,18.5351869 C24.5829996,18.5351869 20.0691118,23.0583058 20.0691118,28.6401974 L20.0691118,131.474481 C20.0691118,137.056372 24.5829996,141.579491 30.1475565,141.579491 L273.31497,141.579491 L273.31497,142.288896" id="Fill-142" fill="#DBDCE7"></path>
                <path d="M273.31497,141.579491 L30.1475565,141.579491 C24.5829996,141.579491 20.0691118,137.056372 20.0691118,131.474481 L20.0691118,28.6401974 C20.0691118,23.0583058 24.5829996,18.5351869 30.1475565,18.5351869 L273.31497,18.5351869 L30.8896747,18.5351869 C25.3410773,18.5351869 20.8404892,23.0449712 20.8404892,28.6081942 L20.8404892,130.79708 C20.8404892,136.36297 25.3410773,140.872754 30.8896747,140.872754 L273.31497,140.872754 L273.31497,141.579491" id="Fill-143" fill="#D9DAE5"></path>
                <path d="M273.31497,140.872754 L30.8896747,140.872754 C25.3410773,140.872754 20.8404892,136.36297 20.8404892,130.79708 L20.8404892,28.6081942 C20.8404892,23.0449712 25.3410773,18.5351869 30.8896747,18.5351869 L273.31497,18.5351869 L31.631793,18.5351869 C26.0991551,18.5351869 21.6145266,23.0316365 21.6145266,28.576191 L21.6145266,130.119679 C21.6145266,135.6669 26.0991551,140.16335 31.631793,140.16335 L273.31497,140.16335 L273.31497,140.872754" id="Fill-144" fill="#D6D6E3"></path>
                <path d="M273.31497,140.16335 L31.631793,140.16335 C26.0991551,140.16335 21.6145266,135.6669 21.6145266,130.119679 L21.6145266,28.576191 C21.6145266,23.0316365 26.0991551,18.5351869 31.631793,18.5351869 L273.31497,18.5351869 L32.3712513,18.5351869 C26.8572329,18.5351869 22.385904,23.0156349 22.385904,28.5468547 L22.385904,129.442278 C22.385904,134.973497 26.8572329,139.456612 32.3712513,139.456612 L273.31497,139.456612 L273.31497,140.16335" id="Fill-145" fill="#D4D5E2"></path>
                <path d="M273.31497,139.456612 L32.3712513,139.456612 C26.8572329,139.456612 22.385904,134.973497 22.385904,129.442278 L22.385904,28.5468547 C22.385904,23.0156349 26.8572329,18.5351869 32.3712513,18.5351869 L273.31497,18.5351869 L33.1133696,18.5351869 C27.6153107,18.5351869 23.1572813,23.0023002 23.1572813,28.5148515 L23.1572813,128.764876 C23.1572813,134.277428 27.6153107,138.747208 33.1133696,138.747208 L273.31497,138.747208 L273.31497,139.456612" id="Fill-146" fill="#D1D2E0"></path>
                <path d="M273.31497,138.747208 L33.1133696,138.747208 C27.6153107,138.747208 23.1572813,134.277428 23.1572813,128.764876 L23.1572813,28.5148515 C23.1572813,23.0023002 27.6153107,18.5351869 33.1133696,18.5351869 L273.31497,18.5351869 L33.8528279,18.5351869 C28.3733885,18.5351869 23.9286587,22.9889656 23.9286587,28.4855152 L23.9286587,128.087475 C23.9286587,133.584025 28.3733885,138.037804 33.8528279,138.037804 L273.31497,138.037804 L273.31497,138.747208" id="Fill-147" fill="#CFCFDF"></path>
                <path d="M273.31497,138.037804 L33.8528279,138.037804 C28.3733885,138.037804 23.9286587,133.584025 23.9286587,128.087475 L23.9286587,28.4855152 C23.9286587,22.9889656 28.3733885,18.5351869 33.8528279,18.5351869 L273.31497,18.5351869 L34.5949461,18.5351869 C29.1314663,18.5351869 24.7000361,22.9756309 24.7000361,28.453512 L24.7000361,127.410074 C24.7000361,132.887955 29.1314663,137.3284 34.5949461,137.3284 L273.31497,137.3284 L273.31497,138.037804" id="Fill-148" fill="#CCCCDD"></path>
                <path d="M273.31497,137.3284 L34.5949461,137.3284 C29.1314663,137.3284 24.7000361,132.887955 24.7000361,127.410074 L24.7000361,28.453512 C24.7000361,22.9756309 29.1314663,18.5351869 34.5949461,18.5351869 L273.31497,18.5351869 L35.3370644,18.5351869 C29.889544,18.5351869 25.4740734,22.9622962 25.4740734,28.4241758 L25.4740734,126.732673 C25.4740734,132.194553 29.889544,136.621662 35.3370644,136.621662 L273.31497,136.621662 L273.31497,137.3284" id="Fill-149" fill="#C9CADC"></path>
                <path d="M273.31497,136.621662 L35.3370644,136.621662 C29.889544,136.621662 25.4740734,132.194553 25.4740734,126.732673 L25.4740734,28.4241758 C25.4740734,22.9622962 29.889544,18.5351869 35.3370644,18.5351869 L273.31497,18.5351869 L36.0765227,18.5351869 C30.6476218,18.5351869 26.2454508,22.9489616 26.2454508,28.3921726 L26.2454508,126.055272 C26.2454508,131.498483 30.6476218,135.912258 36.0765227,135.912258 L273.31497,135.912258 L273.31497,136.621662" id="Fill-150" fill="#C6C6D9"></path>
                <path d="M273.31497,135.912258 L36.0765227,135.912258 C30.6476218,135.912258 26.2454508,131.498483 26.2454508,126.055272 L26.2454508,28.3921726 C26.2454508,22.9489616 30.6476218,18.5351869 36.0765227,18.5351869 L273.31497,18.5351869 L36.818641,18.5351869 C31.4056996,18.5351869 27.0168282,22.93296 27.0168282,28.3628363 L27.0168282,125.377871 C27.0168282,130.805081 31.4056996,135.205521 36.818641,135.205521 L273.31497,135.205521 L273.31497,135.912258" id="Fill-151" fill="#C2C2D7"></path>
                <path d="M273.31497,135.205521 L36.818641,135.205521 C31.4056996,135.205521 27.0168282,130.805081 27.0168282,125.377871 L27.0168282,28.3628363 C27.0168282,22.93296 31.4056996,18.5351869 36.818641,18.5351869 L273.31497,18.5351869 L37.5607592,18.5351869 C32.1637774,18.5351869 27.7882056,22.9196253 27.7882056,28.3308331 L27.7882056,124.697803 C27.7882056,130.109011 32.1637774,134.496116 37.5607592,134.496116 L273.31497,134.496116 L273.31497,135.205521" id="Fill-152" fill="#BFBFD5"></path>
                <path d="M273.31497,134.496116 L37.5607592,134.496116 C32.1637774,134.496116 27.7882056,130.109011 27.7882056,124.697803 L27.7882056,28.3308331 C27.7882056,22.9196253 32.1637774,18.5351869 37.5607592,18.5351869 L273.31497,18.5351869 L38.3002176,18.5351869 C32.9218552,18.5351869 28.559583,22.9062906 28.559583,28.2988299 L28.559583,124.020402 C28.559583,129.415608 32.9218552,133.786712 38.3002176,133.786712 L273.31497,133.786712 L273.31497,134.496116" id="Fill-153" fill="#BCBCD4"></path>
                <path d="M273.31497,133.786712 L38.3002176,133.786712 C32.9218552,133.786712 28.559583,129.415608 28.559583,124.020402 L28.559583,28.2988299 C28.559583,22.9062906 32.9218552,18.5351869 38.3002176,18.5351869 L273.31497,18.5351869 L39.0423358,18.5351869 C33.679933,18.5351869 29.3336203,22.892956 29.3336203,28.2694936 L29.3336203,123.343001 C29.3336203,128.719539 33.679933,133.079975 39.0423358,133.079975 L273.31497,133.079975 L273.31497,133.786712" id="Fill-154" fill="#B9B9D2"></path>
                <path d="M273.31497,133.079975 L39.0423358,133.079975 C33.679933,133.079975 29.3336203,128.719539 29.3336203,123.343001 L29.3336203,28.2694936 C29.3336203,22.892956 33.679933,18.5351869 39.0423358,18.5351869 L273.31497,18.5351869 L39.7844541,18.5351869 C34.4380107,18.5351869 30.1049977,22.8796213 30.1049977,28.2374904 L30.1049977,122.6656 C30.1049977,128.026136 34.4380107,132.37057 39.7844541,132.37057 L273.31497,132.37057 L273.31497,133.079975" id="Fill-155" fill="#B6B6D0"></path>
                <path d="M273.31497,132.37057 L39.7844541,132.37057 C34.4380107,132.37057 30.1049977,128.026136 30.1049977,122.6656 L30.1049977,28.2374904 C30.1049977,22.8796213 34.4380107,18.5351869 39.7844541,18.5351869 L273.31497,18.5351869 L40.5239124,18.5351869 C35.1960885,18.5351869 30.8763751,22.8662866 30.8763751,28.2081541 L30.8763751,121.988199 C30.8763751,127.332733 35.1960885,131.661166 40.5239124,131.661166 L273.31497,131.661166 L273.31497,132.37057" id="Fill-156" fill="#B1B2CE"></path>
                <path d="M273.31497,131.661166 L40.5239124,131.661166 C35.1960885,131.661166 30.8763751,127.332733 30.8763751,121.988199 L30.8763751,28.2081541 C30.8763751,22.8662866 35.1960885,18.5351869 40.5239124,18.5351869 L273.31497,18.5351869 L41.2660306,18.5351869 C35.9541663,18.5351869 31.6477525,22.850285 31.6477525,28.1761509 L31.6477525,121.310798 C31.6477525,126.636664 35.9541663,130.954429 41.2660306,130.954429 L273.31497,130.954429 L273.31497,131.661166" id="Fill-157" fill="#AFB0CD"></path>
                <path d="M273.31497,130.954429 L41.2660306,130.954429 C35.9541663,130.954429 31.6477525,126.636664 31.6477525,121.310798 L31.6477525,28.1761509 C31.6477525,22.850285 35.9541663,18.5351869 41.2660306,18.5351869 L273.31497,18.5351869 L273.31497,130.954429" id="Fill-158" fill="#ADACCA"></path>
                <g id="Fill-159">
                    <use fill="black" fill-opacity="1" filter="url(#filter-16)" xlink:href="#path-15"></use>
                    <use fill="#FCFBFC" fill-rule="evenodd" xlink:href="#path-15"></use>
                </g>
                <polygon id="Fill-160" fill="#F2F2F5" points="42.5241738 118.851885 48.3893019 118.851885 48.3893019 19.169917 42.5241738 19.169917"></polygon>
                <polygon id="Fill-161" fill="#F2F2F5" points="57.5766726 118.851885 63.4418008 118.851885 63.4418008 19.169917 57.5766726 19.169917"></polygon>
                <polygon id="Fill-162" fill="#F2F2F5" points="72.6291715 118.851885 78.4942996 118.851885 78.4942996 19.169917 72.6291715 19.169917"></polygon>
                <polygon id="Fill-163" fill="#F2F2F5" points="87.6816704 118.851885 93.5467985 118.851885 93.5467985 19.169917 87.6816704 19.169917"></polygon>
                <polygon id="Fill-164" fill="#F2F2F5" points="102.734169 118.851885 108.599297 118.851885 108.599297 19.169917 102.734169 19.169917"></polygon>
                <polygon id="Fill-165" fill="#F2F2F5" points="117.786668 118.851885 123.651796 118.851885 123.651796 19.169917 117.786668 19.169917"></polygon>
                <polygon id="Fill-166" fill="#F75F45" points="42.5241738 118.851885 48.3893019 118.851885 48.3893019 74.9701637 42.5241738 74.9701637"></polygon>
                <polygon id="Fill-167" fill="#F75F45" points="57.5766726 118.851885 63.4418008 118.851885 63.4418008 56.7443411 57.5766726 56.7443411"></polygon>
                <polygon id="Fill-168" fill="#F75F45" points="72.6291715 118.851885 78.4942996 118.851885 78.4942996 47.4767477 72.6291715 47.4767477"></polygon>
                <polygon id="Fill-169" fill="#F75F45" points="87.6816704 118.851885 93.5467985 118.851885 93.5467985 56.7443411 87.6816704 56.7443411"></polygon>
                <polygon id="Fill-170" fill="#F75F45" points="102.734169 118.851885 108.599297 118.851885 108.599297 38.5158516 102.734169 38.5158516"></polygon>
                <polygon id="Fill-171" fill="#F75F45" points="117.786668 118.851885 123.651796 118.851885 123.651796 28.6321966 117.786668 28.6321966"></polygon>
                <path d="M190.572775,36.0782745 C190.572775,45.0818415 183.292568,52.3812381 174.312672,52.3812381 C165.332775,52.3812381 158.052568,45.0818415 158.052568,36.0782745 C158.052568,27.0747075 165.332775,19.7753109 174.312672,19.7753109 C183.292568,19.7753109 190.572775,27.0747075 190.572775,36.0782745" id="Fill-172" fill="#CECFDF"></path>
                <polygon id="Fill-173" fill="#F2F2F5" points="199.331898 26.7440077 330.833124 26.7440077 330.833124 22.3542354 199.331898 22.3542354"></polygon>
                <polygon id="Fill-174" fill="#F2F2F5" points="199.331898 39.5292863 330.833124 39.5292863 330.833124 35.139514 199.331898 35.139514"></polygon>
                <polygon id="Fill-175" fill="#FADBCD" points="199.331898 52.3145648 254.418884 52.3145648 254.418884 47.9247925 199.331898 47.9247925"></polygon>
                <path d="M190.572775,99.1005767 C190.572775,108.104144 183.292568,115.40354 174.312672,115.40354 C165.332775,115.40354 158.052568,108.104144 158.052568,99.1005767 C158.052568,90.0970097 165.332775,82.7976131 174.312672,82.7976131 C183.292568,82.7976131 190.572775,90.0970097 190.572775,99.1005767" id="Fill-176" fill="#CECFDF"></path>
                <polygon id="Fill-177" fill="#F2F2F5" points="199.331898 89.76631 330.833124 89.76631 330.833124 85.3765377 199.331898 85.3765377"></polygon>
                <polygon id="Fill-178" fill="#F2F2F5" points="199.331898 102.551588 330.833124 102.551588 330.833124 98.1618162 199.331898 98.1618162"></polygon>
                <polygon id="Fill-179" fill="#FADBCD" points="199.331898 115.336867 254.418884 115.336867 254.418884 110.947095 199.331898 110.947095"></polygon>
            </g>
            <g id="编组-19" transform="translate(198.500000, 217.500000) scale(-1, 1) translate(-198.500000, -217.500000) translate(62.000000, 56.000000)">
                <path d="M124.508566,47.771599 C124.508566,47.771599 129.959703,42.7941066 129.959703,35.2118954 L146.510658,35.2118954 C146.510658,35.2118954 146.833669,45.6441009 150.792551,47.771599 L124.508566,47.771599" id="Fill-180" fill="#F6C9B6"></path>
                <path d="M98.083097,67.0737118 L63.9080437,76.9673777 C62.6213404,77.340623 61.2625604,77.3966098 59.949162,77.130006 L23.8093501,69.8064005 L21.0170438,62.8267138 L20.5819138,62.9733459 C19.0602937,63.4852251 18.0378718,64.9088892 18.0378718,66.5111779 L18.0378718,68.5640269 L15.7687892,69.6064476 L8.55577611,71.2940495 L6.7271625,72.4831023 L0,72.4831023 L2.4212446,74.6985796 C2.7816283,75.0291683 3.23277531,75.2424513 3.71595643,75.3144343 L19.8931805,77.7378626 L27.3144153,79.0655494 L56.5054955,91.0253945 C58.4355504,91.8172076 60.5658186,91.9718378 62.5866368,91.4679567 L99.8289559,82.2061418 L98.083097,67.0737118" id="Fill-181" fill="#F6C9B6"></path>
                <path d="M174.916903,67.0737118 L209.089287,76.9673777 C210.37866,77.340623 211.73744,77.3966098 213.050838,77.130006 L249.18798,69.8064005 L251.982956,62.8267138 L252.418086,62.9733459 C253.937037,63.4852251 254.962128,64.9088892 254.962128,66.5111779 L254.962128,68.5640269 L257.228541,69.6064476 L264.444224,71.2940495 L266.270168,72.4831023 L273,72.4831023 L270.578755,74.6985796 C270.218372,75.0291683 269.767225,75.2424513 269.284044,75.3144343 L253.106819,77.7378626 L245.685585,79.0655494 L216.491835,91.0253945 C214.56445,91.8172076 212.434181,91.9718378 210.410694,91.4679567 L173.168375,82.2061418 L174.916903,67.0737118" id="Fill-182" fill="#F6C9B6"></path>
                <path d="M138.595565,11.6601184 C138.045646,9.66592223 136.782968,7.76237132 134.876939,6.94922983 L137.415642,4.86705439 C136.305126,4.91237703 135.186602,5.00835439 134.124137,5.33361098 C133.056333,5.66153362 132.081963,6.21073738 131.086236,6.70395436 C129.588641,7.4424468 128.787789,7.55975246 128.037657,9.14337885 C127.247482,10.8069864 126.454638,12.4732599 125.664463,14.1395335 C125.317427,14.8726938 124.967721,15.6085202 124.732805,16.3870033 C124.391108,17.5280674 124.305683,18.7251183 124.220259,19.9141711 C124.150852,20.9032711 124.081444,21.889705 124.012037,22.878805 C123.950639,23.7612635 123.88924,24.6490541 123.982673,25.5261805 C124.100131,26.6379182 124.460515,27.7069993 124.820898,28.7654163 C125.46425,30.6529709 126.099593,33.3616652 127.778714,34.5827105 C129.559277,35.8784048 131.492001,37.0088048 133.763753,37.019558 C134.260282,37.022135 134.780836,36.9661482 135.189271,36.6888803 C135.595036,36.4116124 135.835292,35.9557199 136.043514,35.5104916 C138.606243,30.0584445 138.83582,23.8439107 139.022686,17.8266636 C139.086754,15.7578184 139.145483,13.6543146 138.595565,11.6601184" id="Fill-183" fill="#F6C9B6"></path>
                <polygon id="Fill-184" fill="#F6C9B6" points="164.238867 315.684393 175.728434 315.684393 175.728434 306.081325 164.238867 306.081325"></polygon>
                <path d="M173.392613,312.693098 L164.046663,312.693098 L162.292795,317.945193 L162.292795,320.472596 C162.292795,321.866934 163.427337,323 164.82349,323 L174.559189,323 L184.87951,319.110251 L184.87951,317.332004 C184.87951,314.418025 183.480688,311.68267 181.115503,309.976406 L175.728434,306.081325 L175.728434,312.303857 L173.392613,312.693098" id="Fill-185" fill="#6C53B1"></path>
                <path d="M164.82349,319.499493 L174.559189,319.499493 L184.681967,315.684393 C184.783408,316.225598 184.87951,316.772136 184.87951,317.332004 L184.87951,319.110251 L174.559189,323 L164.82349,323 C163.427337,323 162.292795,321.866934 162.292795,320.472596 L162.292795,317.945193 L162.415593,317.577279 C162.693222,318.673021 163.640897,319.499493 164.82349,319.499493" id="Fill-186" fill="#474959"></path>
                <polygon id="Fill-187" fill="#F6C9B6" points="104.452545 315.684393 115.939442 315.684393 115.939442 306.081325 104.452545 306.081325"></polygon>
                <path d="M105.066532,186.538861 C104.652758,190.036702 104.452545,193.553206 104.452545,197.075042 L104.452545,308.611395 L115.939442,308.611395 C115.939442,308.611395 125.932745,269.568512 127.726655,243.66529 C128.043437,239.085037 132.746668,214.266479 141.836348,169.209616 L141.836348,155.935414 L109.42851,153.714605 C109.42851,153.714605 106.977901,170.409333 105.066532,186.538861 Z" id="Fill-188" fill="#474959"></path>
                <path d="M175.344024,188.650363 C175.58695,190.703212 175.715086,192.772057 175.715086,194.838236 L175.715086,308.611395 L164.238867,308.814013 C164.238867,308.814013 157.023185,270.560459 153.200448,243.032199 C152.830567,240.368618 147.874179,221.289564 138.331283,185.795036 L138.331283,155.935414 L170.840563,157.977599 C170.840563,157.977599 173.419308,172.382201 175.344024,188.650363 Z" id="Fill-189" fill="#474959"></path>
                <path d="M106.788366,312.693098 L116.134316,312.693098 L117.888184,317.945193 L117.888184,320.472596 C117.888184,321.866934 116.753642,323 115.357489,323 L105.62179,323 L95.3014687,319.110251 L95.3014687,317.332004 C95.3014687,314.418025 96.7002914,311.68267 99.0628068,309.976406 L104.452545,306.081325 L104.452545,312.303857 L106.788366,312.693098" id="Fill-190" fill="#6C53B1"></path>
                <path d="M115.357489,319.499493 L105.62179,319.499493 L95.4990124,315.684393 C95.397571,316.225598 95.3014687,316.772136 95.3014687,317.332004 L95.3014687,319.110251 L105.62179,323 L115.357489,323 C116.753642,323 117.888184,321.866934 117.888184,320.472596 L117.888184,317.945193 L117.765386,317.577279 C117.487757,318.673021 116.540082,319.499493 115.357489,319.499493" id="Fill-191" fill="#474959"></path>
                <path d="M150.792551,46.6758575 L163.656914,50.6695819 C168.35792,52.1279045 192.645112,69.7290854 192.645112,69.7290854 L185.434768,87.5062247 L169.874201,81.8728871 L173.168375,167.596663 C163.171064,159.16132 130.349451,180.247012 104.452545,164.30144 C104.452545,164.30144 116.329191,109.485039 108.347359,83.4298531 L90.1920286,87.1969643 L81.7403634,69.1825477 L93.4781941,61.8429459 C95.4856648,60.5872421 97.4664405,59.2702195 99.273698,57.7399139 C103.464827,54.1940838 108.347359,51.5387102 113.622308,49.9524178 L124.508566,46.6758575 L150.792551,46.6758575" id="Fill-192" fill="#6C53B1"></path>
                <path d="M156.734925,14.7506077 C156.959164,12.1192285 156.518695,9.63448135 155.309408,7.26703989 C154.353724,5.4008135 153.237869,3.57191165 151.65485,2.19357016 C148.590254,-0.472467532 141.694864,0.0175318283 137.629202,0.0655205067 C136.39322,0.0815167328 135.125203,0.148167675 133.979984,0.620056346 C133.080359,0.993301623 132.282176,1.60115822 131.353187,1.89175633 C130.73653,2.08637708 130.082501,2.13169972 129.452496,2.28099783 C128.595584,2.48628273 127.794731,2.88352235 127.025913,3.31275441 C126.222391,3.76331478 125.418868,4.27519402 124.887636,5.02701665 C123.456779,7.05053926 123.825172,11.1295769 124.748822,13.2917335 C125.098527,14.1155391 125.603065,14.8673618 125.939423,15.6938335 C127.172736,18.7144542 126.043534,22.2229598 126.868412,25.3795484 C127.442356,27.5630333 128.905247,29.4052653 129.724786,31.508769 C130.242671,32.8391218 130.509622,34.2921124 131.318483,35.470501 C132.946884,37.8512727 135.813936,38.1338727 138.395351,38.6910746 C141.590754,39.3815783 142.520009,38.8345061 145.856895,38.895825 C151.64706,38.9998005 152.359553,35.2998746 154.164141,31.5567577 C154.575245,30.6982936 155.173215,29.9251426 155.442835,29.0133578 C156.208984,26.4459635 156.772299,22.839366 156.374542,20.1919906 C156.102252,18.3897491 156.582763,16.5688454 156.734925,14.7506077 Z" id="Fill-193" fill="#474959"></path>
            </g>
            <g id="编组-4" transform="translate(328.000000, 360.000004) scale(-1, 1) translate(-328.000000, -360.000004) translate(295.000000, 342.000000)">
                <path d="M41.4031346,16.7426931 C42.2139914,12.392041 46.6737035,9.93332381 50.6832321,11.4953011 C53.7292102,12.6820845 55.5852296,16.013593 54.9797197,19.2546293 C54.168863,23.6052814 49.7117836,26.0639986 45.702255,24.5020213 C42.6562769,23.3152379 40.8002574,19.9863903 41.4031346,16.7426931 Z M60.7847169,21.8650206 L64.6020619,21.8623596 C65.3760615,21.8596987 66,21.2263927 66,20.4440736 L65.9973673,15.5239783 C65.9947347,14.7416592 65.3681636,14.1083533 64.594164,14.1110142 L61.6087369,14.1110142 C61.1137983,14.1136752 60.6873088,13.7890394 60.5135537,13.3207123 C60.4082477,13.0386517 60.292411,12.7619129 60.1686764,12.4878352 C59.9633295,12.0328128 60.0370438,11.497962 60.3898191,11.1440557 L62.5012058,9.00731345 C63.0487974,8.45383599 63.0487974,7.55975702 62.5012058,7.00627956 L59.0550647,3.5284188 C58.5101058,2.97494134 57.6229021,2.97494134 57.0753105,3.5284188 L54.9481279,5.6811268 C54.6111485,6.02172831 54.108312,6.11752249 53.6739245,5.92859508 C53.3685369,5.79820857 53.0420881,5.6651611 52.7577617,5.55340123 C52.3154762,5.37777857 52.0258845,4.94670478 52.0258845,4.46773391 L52.0258845,1.41562504 C52.0258845,0.633305938 51.3993134,0 50.6279464,0 L45.7575406,0 C44.983541,0 44.3569699,0.633305938 44.3569699,1.41562504 L44.3569699,4.43580252 C44.3569699,4.93606099 44.038419,5.36447383 43.5750723,5.54009648 C43.282848,5.65185635 42.9932563,5.77426002 42.7089299,5.90730749 C42.2587465,6.11486154 41.7322161,6.0430159 41.3820734,5.68910964 L39.2601561,3.55768924 C38.7125645,3.00687273 37.8279935,3.00953368 37.2830346,3.56301114 L33.8474241,7.05417665 C33.3024652,7.6076541 33.3050978,8.50439402 33.8526894,9.05521053 L35.9904026,11.2025966 C36.327382,11.5405372 36.4221575,12.0487785 36.2378719,12.4904961 C36.108872,12.7965053 35.9772394,13.1291239 35.8693006,13.4138455 C35.6955456,13.863546 35.269056,14.1562504 34.7951787,14.1562504 L31.7755272,14.1642332 C31.0015275,14.1668942 30.3775891,14.8002001 30.3802134,15.5825192 L30.3907523,20.5052755 C30.393385,21.2849336 31.0225888,21.9182395 31.7939557,21.9155786 L34.7846481,21.9075957 C35.276954,21.9075957 35.7034436,22.2295706 35.8798312,22.6952367 C35.9851373,22.9772974 36.0983413,23.2566971 36.222076,23.5307748 C36.4300555,23.9857972 36.3563412,24.517987 36.0088312,24.8745542 L33.8974445,27.0139575 C33.3524856,27.5674349 33.3551182,28.4641749 33.9000771,29.0149914 L37.3514836,32.4875302 C37.8990751,33.0383468 38.7862788,33.0383468 39.3312377,32.4848693 L41.4584203,30.3268394 C41.7901344,29.9862379 42.2956036,29.8904437 42.7326238,30.0767102 C43.0353787,30.2070967 43.3644602,30.3401441 43.6461539,30.451904 C44.0910721,30.6248657 44.3780311,31.0559395 44.3806638,31.5375713 L44.3832964,34.5896802 C44.3859291,35.3693384 45.0125002,36.0026443 45.7864998,36 L50.6569056,35.9920005 C51.4282725,35.9920005 52.0548436,35.3560336 52.052211,34.5763755 L52.0495783,31.556198 C52.0469457,31.0559395 52.3681292,30.6248657 52.8288433,30.4492431 C53.1079043,30.3428051 53.3843328,30.2257233 53.6554959,30.1006587 C54.1056794,29.8931047 54.6322097,29.9676112 54.9823524,30.3215175 L57.0990044,32.4555988 C57.646596,33.0064154 58.5337996,33.0064154 59.0787585,32.4529379 L62.5170017,28.9670943 C63.0645933,28.4136168 63.0619606,27.5195379 62.5143691,26.9660604 L60.3845538,24.8160134 C60.0475744,24.4780728 59.9527989,23.9698315 60.1370845,23.5281139 C60.4477374,22.7936919 60.768921,21.9155786 60.7847169,21.8650206 L60.7847169,21.8650206 Z" id="Fill-110" fill="#6C53B1" transform="translate(48.190103, 18.000004) scale(-1, 1) translate(-48.190103, -18.000004) "></path>
                <path d="M11.4072801,35.3613555 C5.10734441,35.3613555 0,30.2017748 0,23.8341231 C0,17.4664713 5.10734441,12.3042297 11.4072801,12.3042297 C17.7045831,12.3042297 22.8119275,17.4664713 22.8119275,23.8341231 C22.8119275,30.2017748 17.7045831,35.3613555 11.4072801,35.3613555 Z" id="Fill-249" fill="#6C53B1" transform="translate(11.405964, 23.832793) scale(-1, 1) translate(-11.405964, -23.832793) "></path>
                <polyline id="Fill-250" fill="#FFFFFE" transform="translate(11.403331, 23.890003) scale(-1, 1) translate(-11.403331, -23.890003) " points="15.5379107 30.4465821 11.6020963 28.4215997 11.3572597 28.4242606 7.47673099 30.5530201 7.09236383 30.2789423 7.78211859 25.8697493 7.70313904 25.6355857 4.5018345 22.5621893 4.64136505 22.1071669 9.00366901 21.4099982 9.19848524 21.2609851 11.1018925 17.2349687 11.5705045 17.2269859 13.5765851 21.2051051 13.7766666 21.3461354 18.1547665 21.9315443 18.3048277 22.3812447 15.1825027 25.5371306 15.1114211 25.7739551 15.9143799 30.1618605 15.5379107 30.4465821"></polyline>
            </g>
            <g id="编组-17" transform="translate(60.000000, 297.500000) scale(-1, 1) translate(-60.000000, -297.500000) translate(0.000000, 217.000000)">
                <g id="编组-5" fill="#DFDFE9">
                    <path d="M80.5153825,13.5190431 C80.2107614,8.89938989 79.8714028,4.13520523 77.7871533,0 C63.2187834,17.6488953 57.762325,42.4628032 63.5768468,64.6082323 L67.8736074,68.6069356 C74.9600558,61.9183416 78.7945405,52.3498246 80.2935969,42.714395 C81.7926533,33.0762888 81.15669,23.2508271 80.5153825,13.5190431" id="Fill-31"></path>
                    <path d="M119.677897,38.5872193 C119.367932,38.2312437 118.881607,38.1027713 118.422003,37.9983874 C108.879881,35.8625339 98.4212237,38.2901268 90.792336,44.4166542 C83.1607761,50.5431816 78.5193127,60.2401709 78.5246523,70.0335145 L81.4185573,73.5343873 C87.5243396,75.2045285 93.9080218,72.0863964 98.9743515,68.2857547 C108.235901,61.3428923 115.498709,51.7502868 119.672553,40.9425465 C119.97183,40.1690356 120.22568,39.2081692 119.677897,38.5872193" id="Fill-32"></path>
                    <path d="M24.8846246,38.0572706 C18.3913856,32.7738434 10.8373171,27.6081825 2.48695836,28.1193955 C1.60248836,28.1756022 0.587084736,28.3816933 0.175579058,29.1659103 C-0.738284202,30.9002876 2.18500938,32.2037471 2.75149772,34.0799794 C3.08283995,35.1719947 2.54574488,36.3121873 2.32128724,37.4336442 C1.90978156,39.481173 2.55910545,41.587585 3.33134663,43.5280535 C10.9682507,62.7186175 32.5883315,75.2500291 53.0059607,72.3165761 L55.5471418,68.3205493 C46.3203294,57.2853058 36.0380317,47.1359866 24.8846246,38.0572706" id="Fill-33"></path>
                    <path d="M48.8160847,69.535684 C63.3844545,83.3892906 65.2522628,103.944874 62.7404749,122.913288 C62.1953634,127.040463 68.6805861,127.000316 69.2230254,122.913288 C71.9592709,102.253321 69.1428619,79.9178595 53.3987615,64.9427959 C50.3739276,62.068226 45.7832344,66.6504081 48.8160847,69.535684" id="Fill-34"></path>
                    <path d="M63.0424238,62.9514737 C66.1233722,81.1865244 62.1953634,99.6116071 64.140663,117.932306 C64.5788898,122.046099 71.0641124,122.088923 70.6232135,117.932306 C68.6137832,99.0093927 72.4776612,80.083803 69.2925003,61.2251259 C68.5977505,57.1140093 62.3503461,58.8590926 63.0424238,62.9514737" id="Fill-35"></path>
                    <path d="M82.0384879,61.6613968 C76.6915862,69.6962745 71.2912422,78.467192 68.7901428,87.888501 C66.0806184,98.1100859 66.8528595,109.611042 66.3852394,120.110984 C66.2008635,124.289013 72.6807419,124.278307 72.8677899,120.110984 C73.3086889,110.213256 72.5952342,99.2315429 75.0428914,89.6148488 C77.2767793,80.8305488 82.6504022,72.4289894 87.6338963,64.9374429 C89.9532919,61.4499526 84.3418509,58.1953186 82.0384879,61.6613968" id="Fill-36"></path>
                </g>
                <path d="M86.3413776,161 L50.1609433,161 C48.6752475,161 47.3739276,159.998986 46.9944873,158.559024 L34.6760381,111.987781 C34.1255824,109.905458 35.6941138,107.865958 37.8451662,107.865958 L98.6571547,107.865958 C100.808207,107.865958 102.376739,109.905458 101.826283,111.987781 L89.5078337,158.559024 C89.1283934,159.998986 87.8270735,161 86.3413776,161" id="Fill-37" fill="#AFB0CD"></path>
            </g>
        </g>
    </g>
</svg>