<?xml version="1.0" encoding="UTF-8"?>
<!--
  ~ Copyright 2022 Nightingale Team
  ~
  ~ Licensed under the Apache License, Version 2.0 (the "License");
  ~ you may not use this file except in compliance with the License.
  ~ You may obtain a copy of the License at
  ~
  ~ http://www.apache.org/licenses/LICENSE-2.0
  ~
  ~ Unless required by applicable law or agreed to in writing, software
  ~ distributed under the License is distributed on an "AS IS" BASIS,
  ~ WITHOUT WARRANTIES OR CONDITIONS OF ANY KIND, either express or implied.
  ~ See the License for the specific language governing permissions and
  ~ limitations under the License.
  ~
-->
<svg width="1246px" height="330px" viewBox="0 0 1246 330" version="1.1" xmlns="http://www.w3.org/2000/svg" xmlns:xlink="http://www.w3.org/1999/xlink">
    <title>编组</title>
    <g id="页面-1" stroke="none" stroke-width="1" fill="none" fill-rule="evenodd">
        <g id="白色备份" transform="translate(-35.000000, -90.000000)" fill="#FFFFFF">
            <g id="编组-3" transform="translate(34.999691, 90.000000)">
                <path d="M431.320621,230 L431.320621,165.3125 L450.568668,230 L483.000309,230 L483.000309,87.7050781 L452.062809,87.7050781 L452.062809,151.777344 L431.320621,87.7050781 L400.383121,87.7050781 L400.383121,230 L431.320621,230 Z M533.361637,106.25 L533.361637,87.7050781 L496.799137,87.7050781 L496.799137,106.25 L533.361637,106.25 Z M533.361637,230 L533.361637,113.369141 L496.799137,113.369141 L496.799137,230 L533.361637,230 Z M582.931949,250.126953 C592.131168,250.126953 599.763004,249.086914 605.827457,247.006836 C611.89191,244.926758 616.623356,241.90918 620.021793,237.954102 C623.420231,233.999023 625.39777,230.249023 625.95441,226.704102 C626.511051,223.15918 626.789371,215.322266 626.789371,203.193359 L626.789371,203.193359 L626.789371,113.369141 L593.742496,113.369141 L591.193668,122.158203 C588.322574,118.525391 585.055973,115.800781 581.393864,113.984375 C577.731754,112.167969 573.674137,111.259766 569.221012,111.259766 C561.076481,111.259766 555.012028,113.691406 551.027653,118.554688 C547.043278,123.417969 545.05109,131.386719 545.05109,142.460938 L545.05109,142.460938 L545.05109,184.824219 C545.05109,192.558594 545.812809,198.520508 547.336246,202.709961 C548.859684,206.899414 551.686832,210.283203 555.817692,212.861328 C559.948551,215.439453 565.20734,216.728516 571.594059,216.728516 C575.285465,216.728516 578.815739,216.025391 582.184879,214.619141 C585.55402,213.212891 588.762028,211.132812 591.808903,208.378906 L591.808903,208.378906 L591.808903,217.167969 C591.808903,222.207031 591.369449,225.517578 590.490543,227.099609 C589.611637,228.681641 587.824528,229.472656 585.129215,229.472656 C581.379215,229.472656 579.504215,226.894531 579.504215,221.738281 L579.504215,221.738281 L545.05109,221.738281 C545.285465,232.988281 548.830387,240.532227 555.685856,244.370117 C562.541324,248.208008 571.623356,250.126953 582.931949,250.126953 Z M585.568668,195.986328 C583.517887,195.986328 582.170231,195.209961 581.525699,193.657227 C580.881168,192.104492 580.558903,188.720703 580.558903,183.505859 L580.558903,183.505859 L580.558903,144.306641 C580.558903,139.384766 580.983707,136.088867 581.833317,134.418945 C582.682926,132.749023 584.133121,131.914062 586.183903,131.914062 C588.293278,131.914062 589.655582,132.646484 590.270817,134.111328 C590.886051,135.576172 591.193668,138.974609 591.193668,144.306641 L591.193668,144.306641 L591.193668,180.429688 C591.193668,187.050781 590.842106,191.298828 590.138981,193.173828 C589.435856,195.048828 587.912418,195.986328 585.568668,195.986328 Z M674.953434,230 L674.953434,146.767578 C674.953434,140.849609 675.334293,136.894531 676.096012,134.902344 C676.857731,132.910156 678.322574,131.914062 680.490543,131.914062 C682.834293,131.914062 684.343082,132.880859 685.01691,134.814453 C685.690739,136.748047 686.027653,141.113281 686.027653,147.910156 L686.027653,147.910156 L686.027653,230 L721.535465,230 L721.535465,149.580078 C721.535465,138.623047 721.052067,131.079102 720.08527,126.948242 C719.118473,122.817383 716.452457,119.169922 712.087223,116.005859 C707.721989,112.841797 702.433903,111.259766 696.222965,111.259766 C692.179996,111.259766 688.386051,111.962891 684.841129,113.369141 C681.296207,114.775391 678.000309,116.884766 674.953434,119.697266 L674.953434,119.697266 L674.953434,87.7050781 L639.445621,87.7050781 L639.445621,230 L674.953434,230 Z M782.267887,230 L782.267887,211.191406 C776.467106,211.191406 773.171207,210.751953 772.380192,209.873047 C771.589176,208.994141 771.193668,204.716797 771.193668,197.041016 L771.193668,134.638672 L780.773746,134.638672 L780.773746,116.181641 L771.193668,116.181641 L771.193668,97.8125 L735.597965,97.8125 L735.597965,116.181641 L727.951481,116.181641 L727.951481,134.638672 L735.597965,134.638672 L735.598273,194.494416 C735.609577,205.740314 735.93174,212.902658 736.564762,215.981445 C737.209293,219.116211 738.849918,221.899414 741.486637,224.331055 C744.123356,226.762695 747.170231,228.31543 750.627262,228.989258 C754.084293,229.663086 759.855778,230 767.941715,230 L782.267887,230 Z M825.158512,106.25 L825.158512,87.7050781 L788.596012,87.7050781 L788.596012,106.25 L825.158512,106.25 Z M825.158512,230 L825.158512,113.369141 L788.596012,113.369141 L788.596012,230 L825.158512,230 Z M873.410465,230 L873.410868,150.628231 C873.423753,142.153833 873.745884,136.926519 874.377262,134.946289 C875.021793,132.924805 876.603824,131.914062 879.123356,131.914062 C881.525699,131.914062 882.990543,132.792969 883.517887,134.550781 C884.045231,136.308594 884.308903,141.201172 884.308903,149.228516 L884.308903,230 L919.816715,230 L919.816715,148.261719 C919.816715,138.066406 919.260074,130.786133 918.146793,126.420898 C917.033512,122.055664 914.543278,118.4375 910.67609,115.566406 C906.808903,112.695312 901.828434,111.259766 895.734684,111.259766 C890.871403,111.259766 886.57941,112.329102 882.858707,114.467773 C879.138004,116.606445 875.98859,119.814453 873.410465,124.091797 L873.410465,124.091797 L874.025699,113.369141 L837.902653,113.369141 L837.902653,230 L873.410465,230 Z M968.859684,250.126953 C978.058903,250.126953 985.690739,249.086914 991.755192,247.006836 C997.819645,244.926758 1002.55109,241.90918 1005.94953,237.954102 C1009.34797,233.999023 1011.3255,230.249023 1011.88214,226.704102 C1012.43879,223.15918 1012.71711,215.322266 1012.71711,203.193359 L1012.71711,113.369141 L979.670231,113.369141 L977.121403,122.158203 C974.250309,118.525391 970.983707,115.800781 967.321598,113.984375 C963.659489,112.167969 959.601871,111.259766 955.148746,111.259766 C947.004215,111.259766 940.939762,113.691406 936.955387,118.554688 C932.971012,123.417969 930.978824,131.386719 930.978824,142.460938 L930.978824,142.460938 L930.978824,184.824219 C930.978824,192.558594 931.740543,198.520508 933.263981,202.709961 C934.787418,206.899414 937.614567,210.283203 941.745426,212.861328 C945.876285,215.439453 951.135074,216.728516 957.521793,216.728516 C961.213199,216.728516 964.743473,216.025391 968.112614,214.619141 C971.481754,213.212891 974.689762,211.132812 977.736637,208.378906 L977.736637,208.378906 L977.736637,217.167969 C977.736637,222.207031 977.297184,225.517578 976.418278,227.099609 C975.539371,228.681641 973.752262,229.472656 971.056949,229.472656 C967.306949,229.472656 965.431949,226.894531 965.431949,221.738281 L965.431949,221.738281 L930.978824,221.738281 C931.213199,232.988281 934.758121,240.532227 941.61359,244.370117 C948.469059,248.208008 957.55109,250.126953 968.859684,250.126953 Z M971.496403,195.986328 C969.445621,195.986328 968.097965,195.209961 967.453434,193.657227 C966.808903,192.104492 966.486637,188.720703 966.486637,183.505859 L966.486637,183.505859 L966.486637,144.306641 C966.486637,139.384766 966.911442,136.088867 967.761051,134.418945 C968.61066,132.749023 970.060856,131.914062 972.111637,131.914062 C974.221012,131.914062 975.583317,132.646484 976.198551,134.111328 C976.813785,135.576172 977.121403,138.974609 977.121403,144.306641 L977.121403,144.306641 L977.121403,180.429688 C977.121403,187.050781 976.76984,191.298828 976.066715,193.173828 C975.36359,195.048828 973.840153,195.986328 971.496403,195.986328 Z M1048.66437,232.109375 C1053.41047,232.109375 1057.49738,231.069336 1060.92511,228.989258 C1064.35285,226.90918 1067.1507,223.789062 1069.31867,219.628906 L1069.31867,219.628906 L1069.31867,230 L1103.85968,230 L1103.85968,170.686917 C1103.84294,151.844655 1103.22782,139.374472 1102.01398,133.276367 C1100.78351,127.094727 1097.1214,121.879883 1091.02765,117.631836 C1084.9339,113.383789 1075.88117,111.259766 1063.86945,111.259766 C1053.84992,111.259766 1045.70539,113.134766 1039.43586,116.884766 C1033.16632,120.634766 1028.99152,124.956055 1026.91144,129.848633 C1024.83136,134.741211 1023.79132,141.699219 1023.79132,150.722656 L1023.79132,150.722656 L1023.79132,158.544922 L1057.10187,158.544922 L1057.10187,146.328125 C1057.10187,139.824219 1057.39484,135.795898 1057.98078,134.243164 C1058.56672,132.69043 1060.06086,131.914062 1062.4632,131.914062 C1064.57257,131.914062 1066.08136,132.836914 1066.98957,134.682617 C1067.89777,136.52832 1068.35187,140.498047 1068.35187,146.591797 C1068.35187,151.455078 1067.94172,154.677734 1067.1214,156.259766 C1066.30109,157.841797 1060.06086,160.917969 1048.4007,165.488281 C1037.50226,169.707031 1030.67609,173.398438 1027.92218,176.5625 C1025.16828,179.726562 1023.79132,185.673828 1023.79132,194.404297 L1023.79132,194.404297 L1023.79132,203.984375 C1023.79132,215.761719 1026.3841,223.393555 1031.56964,226.879883 C1036.75519,230.366211 1042.45343,232.109375 1048.66437,232.109375 Z M1062.99054,211.455078 C1060.64679,211.455078 1059.07941,210.576172 1058.28839,208.818359 C1057.49738,207.060547 1057.10187,203.164062 1057.10187,197.128906 C1057.10187,191.855469 1057.55597,187.8125 1058.46418,185 C1059.37238,182.1875 1062.66828,178.701172 1068.35187,174.541016 L1068.35187,174.541016 L1068.35187,198.535156 C1068.35187,204.394531 1068.01496,208.012695 1067.34113,209.389648 C1066.6673,210.766602 1065.21711,211.455078 1062.99054,211.455078 Z M1152.63898,230 L1152.63898,87.7050781 L1116.07648,87.7050781 L1116.07648,230 L1152.63898,230 Z M1206.07648,232.109375 C1213.81086,232.109375 1220.24152,231.010742 1225.36847,228.813477 C1230.49543,226.616211 1234.72882,223.320312 1238.06867,218.925781 C1241.40851,214.53125 1243.53254,210.400391 1244.44074,206.533203 C1245.34894,202.666016 1245.80304,197.128906 1245.80304,189.921875 L1245.80304,189.921875 L1245.80304,181.308594 L1212.14093,181.308594 L1212.14093,196.689453 C1212.14093,202.490234 1211.68683,206.401367 1210.77863,208.422852 C1209.87043,210.444336 1208.06867,211.455078 1205.37336,211.455078 C1203.20539,211.455078 1201.74054,210.693359 1200.97882,209.169922 C1200.21711,207.646484 1199.83625,204.248047 1199.83625,198.974609 L1199.83625,198.974609 L1199.83625,173.75 L1245.80304,173.75 L1245.80304,158.28125 C1245.80304,146.972656 1244.49933,138.198242 1241.89191,131.958008 C1239.28449,125.717773 1234.74347,120.708008 1228.26886,116.928711 C1221.79425,113.149414 1213.57648,111.259766 1203.61554,111.259766 C1195.47101,111.259766 1188.26398,112.827148 1181.99445,115.961914 C1175.72492,119.09668 1171.2132,123.608398 1168.45929,129.49707 C1165.70539,135.385742 1164.32843,143.427734 1164.32843,153.623047 L1164.32843,153.623047 L1164.32843,187.636719 C1164.32843,196.308594 1164.94367,202.915039 1166.17414,207.456055 C1167.40461,211.99707 1169.61652,216.157227 1172.80988,219.936523 C1176.00324,223.71582 1180.47101,226.689453 1186.2132,228.857422 C1191.95539,231.025391 1198.57648,232.109375 1206.07648,232.109375 Z M1210.20734,154.765625 L1199.83625,154.765625 L1199.83625,146.240234 C1199.83625,139.677734 1200.12922,135.649414 1200.71515,134.155273 C1201.30109,132.661133 1202.82453,131.914062 1205.28547,131.914062 C1207.27765,131.914062 1208.59601,132.792969 1209.24054,134.550781 C1209.88507,136.308594 1210.20734,140.205078 1210.20734,146.240234 L1210.20734,146.240234 L1210.20734,154.765625 Z" id="Nightingale" fill-rule="nonzero"></path>
                <g id="编组-2">
                    <path d="M287.665309,214.106 L330,230.833 L330.000309,258 C330.000309,297.764502 297.764811,330 258.000309,330 L72.0003088,330 C32.2358068,330 0.000308828117,297.764502 0.000308828117,258 L0,226.924 L51.8362393,253.708733 L54.0019322,254.814272 C124.782897,290.506569 198.26542,284.484444 268.319538,238.286835 L270.441335,236.874612 L271.039774,236.46556 C278.988745,230.937071 284.55427,223.228581 287.471136,214.690606 L287.653719,214.144515 L287.665309,214.106 Z M256.297997,135.877871 L258.365369,137.879943 L320.947426,199.133807 L239.504248,166.953713 C210.114278,155.341052 186.092579,154.860433 164.190922,163.307824 C161.484462,164.351695 158.836235,165.50595 156.213922,166.78842 L155.091565,167.345952 C151.728692,169.042409 148.401024,170.955024 145.039875,173.121695 L143.918157,173.85338 C143.730966,173.976914 143.543648,174.101244 143.356192,174.226378 L142.229695,174.986876 L141.099304,175.766974 L139.964454,176.566982 C139.585365,176.837004 139.205439,177.110397 138.824581,177.387213 L137.679118,178.227978 L136.5275,179.08959 L135.369163,179.97236 C135.175515,180.121269 134.981564,180.271073 134.787297,180.421778 L133.617819,181.33687 L132.440208,182.273901 L131.253899,183.233183 L130.058325,184.215026 C129.658194,184.546102 129.256424,184.88099 128.852922,185.219743 L127.637125,186.247646 L126.410367,187.299047 C126.204963,187.476256 125.999078,187.654457 125.792702,187.833657 L124.548444,188.92089 L123.291813,190.0324 L122.022244,191.1685 C121.80954,191.359916 121.596272,191.55237 121.382431,191.745868 L120.092394,192.919437 L118.788004,194.118376 L117.468698,195.342995 L116.133909,196.593608 L114.101459,198.518947 L112.72549,199.835908 L111.332061,201.179954 L108.642822,203.802911 L104.1238,208.255876 L103.36,209.01 L104.851519,209.505307 C147.664777,223.450153 190.39614,216.033137 234.547022,186.877327 L236.143458,185.814035 C244.247836,180.370247 255.230796,182.527081 260.674585,190.63146 C266.118373,198.735839 263.961539,209.718798 255.85716,215.162587 C192.814971,257.508628 128.595583,263.148982 65.7468288,231.44401 L63.8427433,230.471821 L41.2587416,218.802675 L60.4510313,201.335851 L62.0369874,199.875057 L63.6701418,198.347762 L65.3719982,196.734108 L67.1640601,195.014238 L69.0678311,193.168292 L71.6373953,190.653312 L84.3575757,178.099986 L86.0419133,176.456176 L87.6357459,174.913633 L89.2125997,173.399537 L90.7731623,171.913566 L92.3181215,170.455396 C92.5743526,170.214666 92.8299622,169.975081 93.0849647,169.736635 L94.6078084,168.319559 L96.116768,166.929476 L97.6125314,165.566061 L99.0957863,164.228991 L100.56722,162.917942 L102.027522,161.632592 C102.51251,161.208389 102.995757,160.788415 103.477378,160.372616 L104.917476,159.137691 L106.348505,157.927494 C106.586292,157.727837 106.82373,157.529197 107.060833,157.331567 L108.479547,156.157854 C108.951189,155.770621 109.421605,155.387374 109.890911,155.00806 L111.295612,153.881861 C111.762812,153.510359 112.229016,153.142734 112.694339,152.778935 L114.087778,151.698956 C126.375167,142.259547 138.124254,135.468176 151.468201,130.321464 C157.543682,127.978173 163.731469,126.130099 170.043348,124.791314 L170.649,124.665 L170.524595,124.636133 C138.622418,117.513614 107.046193,129.816146 74.0179973,161.543731 L72.3653693,163.146297 C65.3882582,169.975332 54.196166,169.855292 47.3671317,162.878181 C40.5380974,155.90107 40.6581373,144.708977 47.6352484,137.879943 C115.818053,71.1441974 188.03452,70.47684 256.297997,135.877871 Z M258.000309,0 C297.764811,-7.30462051e-15 330.000309,32.235498 330.000309,72 L330,171.395 L276.660685,119.187923 L274.286485,116.890297 C195.83823,41.8345085 107.588151,42.6003839 29.3399331,119.187923 C12.2125086,135.951848 11.7495068,163.319111 28.1722828,180.651369 L28.6751115,181.173496 L29.1863336,181.687408 C31.2297444,183.708516 33.4237668,185.488141 35.7324064,187.025896 L36.3648501,187.439287 L36.6573088,187.624 L0,220.984 L0.000308828117,72 C0.000308828117,32.235498 32.2358068,7.30462051e-15 72.0003088,0 L258.000309,0 Z" id="形状结合"></path>
                </g>
            </g>
        </g>
    </g>
</svg>