<?xml version="1.0" encoding="UTF-8"?>
<!--
  ~ Copyright 2022 Nightingale Team
  ~
  ~ Licensed under the Apache License, Version 2.0 (the "License");
  ~ you may not use this file except in compliance with the License.
  ~ You may obtain a copy of the License at
  ~
  ~ http://www.apache.org/licenses/LICENSE-2.0
  ~
  ~ Unless required by applicable law or agreed to in writing, software
  ~ distributed under the License is distributed on an "AS IS" BASIS,
  ~ WITHOUT WARRANTIES OR CONDITIONS OF ANY KIND, either express or implied.
  ~ See the License for the specific language governing permissions and
  ~ limitations under the License.
  ~
-->
<svg width="330px" height="330px" viewBox="0 0 330 330" version="1.1" xmlns="http://www.w3.org/2000/svg" xmlns:xlink="http://www.w3.org/1999/xlink">
    <title>编组</title>
    <g id="页面-1" stroke="none" stroke-width="1" fill="none" fill-rule="evenodd">
        <g id="白色备份-2" transform="translate(-35.000000, -90.000000)" fill="#6C53B1">
            <g id="编组-2" transform="translate(34.999691, 90.000000)">
                <path d="M287.665309,214.106 L330,230.833 L330.000309,258 C330.000309,297.764502 297.764811,330 258.000309,330 L72.0003088,330 C32.2358068,330 0.000308828117,297.764502 0.000308828117,258 L0,226.924 L51.8362393,253.708733 L54.0019322,254.814272 C124.782897,290.506569 198.26542,284.484444 268.319538,238.286835 L270.441335,236.874612 L271.039774,236.46556 C278.988745,230.937071 284.55427,223.228581 287.471136,214.690606 L287.653719,214.144515 L287.665309,214.106 Z M256.297997,135.877871 L258.365369,137.879943 L320.947426,199.133807 L239.504248,166.953713 C210.114278,155.341052 186.092579,154.860433 164.190922,163.307824 C161.484462,164.351695 158.836235,165.50595 156.213922,166.78842 L155.091565,167.345952 C151.728692,169.042409 148.401024,170.955024 145.039875,173.121695 L143.918157,173.85338 C143.730966,173.976914 143.543648,174.101244 143.356192,174.226378 L142.229695,174.986876 L141.099304,175.766974 L139.964454,176.566982 C139.585365,176.837004 139.205439,177.110397 138.824581,177.387213 L137.679118,178.227978 L136.5275,179.08959 L135.369163,179.97236 C135.175515,180.121269 134.981564,180.271073 134.787297,180.421778 L133.617819,181.33687 L132.440208,182.273901 L131.253899,183.233183 L130.058325,184.215026 C129.658194,184.546102 129.256424,184.88099 128.852922,185.219743 L127.637125,186.247646 L126.410367,187.299047 C126.204963,187.476256 125.999078,187.654457 125.792702,187.833657 L124.548444,188.92089 L123.291813,190.0324 L122.022244,191.1685 C121.80954,191.359916 121.596272,191.55237 121.382431,191.745868 L120.092394,192.919437 L118.788004,194.118376 L117.468698,195.342995 L116.133909,196.593608 L114.101459,198.518947 L112.72549,199.835908 L111.332061,201.179954 L108.642822,203.802911 L104.1238,208.255876 L103.36,209.01 L104.851519,209.505307 C147.664777,223.450153 190.39614,216.033137 234.547022,186.877327 L236.143458,185.814035 C244.247836,180.370247 255.230796,182.527081 260.674585,190.63146 C266.118373,198.735839 263.961539,209.718798 255.85716,215.162587 C192.814971,257.508628 128.595583,263.148982 65.7468288,231.44401 L63.8427433,230.471821 L41.2587416,218.802675 L60.4510313,201.335851 L62.0369874,199.875057 L63.6701418,198.347762 L65.3719982,196.734108 L67.1640601,195.014238 L69.0678311,193.168292 L71.6373953,190.653312 L84.3575757,178.099986 L86.0419133,176.456176 L87.6357459,174.913633 L89.2125997,173.399537 L90.7731623,171.913566 L92.3181215,170.455396 C92.5743526,170.214666 92.8299622,169.975081 93.0849647,169.736635 L94.6078084,168.319559 L96.116768,166.929476 L97.6125314,165.566061 L99.0957863,164.228991 L100.56722,162.917942 L102.027522,161.632592 C102.51251,161.208389 102.995757,160.788415 103.477378,160.372616 L104.917476,159.137691 L106.348505,157.927494 C106.586292,157.727837 106.82373,157.529197 107.060833,157.331567 L108.479547,156.157854 C108.951189,155.770621 109.421605,155.387374 109.890911,155.00806 L111.295612,153.881861 C111.762812,153.510359 112.229016,153.142734 112.694339,152.778935 L114.087778,151.698956 C126.375167,142.259547 138.124254,135.468176 151.468201,130.321464 C157.543682,127.978173 163.731469,126.130099 170.043348,124.791314 L170.649,124.665 L170.524595,124.636133 C138.622418,117.513614 107.046193,129.816146 74.0179973,161.543731 L72.3653693,163.146297 C65.3882582,169.975332 54.196166,169.855292 47.3671317,162.878181 C40.5380974,155.90107 40.6581373,144.708977 47.6352484,137.879943 C115.818053,71.1441974 188.03452,70.47684 256.297997,135.877871 Z M258.000309,0 C297.764811,-7.30462051e-15 330.000309,32.235498 330.000309,72 L330,171.395 L276.660685,119.187923 L274.286485,116.890297 C195.83823,41.8345085 107.588151,42.6003839 29.3399331,119.187923 C12.2125086,135.951848 11.7495068,163.319111 28.1722828,180.651369 L28.6751115,181.173496 L29.1863336,181.687408 C31.2297444,183.708516 33.4237668,185.488141 35.7324064,187.025896 L36.3648501,187.439287 L36.6573088,187.624 L0,220.984 L0.000308828117,72 C0.000308828117,32.235498 32.2358068,7.30462051e-15 72.0003088,0 L258.000309,0 Z" id="形状结合"></path>
            </g>
        </g>
    </g>
</svg>