<?xml version="1.0" encoding="UTF-8"?>
<svg width="390px" height="129px" viewBox="0 0 390 129" version="1.1" xmlns="http://www.w3.org/2000/svg" xmlns:xlink="http://www.w3.org/1999/xlink">
    <title>nightingale</title>
    <defs>
        <linearGradient x1="0%" y1="59.8765432%" x2="100%" y2="40.1234568%" id="linearGradient-1">
            <stop stop-color="#0019F4" offset="0%"></stop>
            <stop stop-color="#0019F4" offset="41.7613636%"></stop>
            <stop stop-color="#7200F1" offset="100%"></stop>
        </linearGradient>
        <linearGradient x1="50%" y1="62.5%" x2="100%" y2="37.5%" id="linearGradient-2">
            <stop stop-color="#0019F4" offset="0%"></stop>
            <stop stop-color="#7200F1" offset="100%"></stop>
        </linearGradient>
        <linearGradient x1="1.22342315e-13%" y1="62.5%" x2="100%" y2="37.5%" id="linearGradient-3">
            <stop stop-color="#0019F4" offset="0%"></stop>
            <stop stop-color="#7200F1" offset="100%"></stop>
        </linearGradient>
        <linearGradient x1="-1.78957223e-14%" y1="50%" x2="100%" y2="50%" id="linearGradient-4">
            <stop stop-color="#0019F4" offset="0%"></stop>
            <stop stop-color="#7200F1" offset="100%"></stop>
        </linearGradient>
        <linearGradient x1="2.53450571e-14%" y1="50%" x2="100%" y2="50%" id="linearGradient-5">
            <stop stop-color="#0019F4" offset="0%"></stop>
            <stop stop-color="#7200F1" offset="100%"></stop>
        </linearGradient>
        <linearGradient x1="2.53450571e-14%" y1="50%" x2="100%" y2="50%" id="linearGradient-6">
            <stop stop-color="#0019F4" offset="0%"></stop>
            <stop stop-color="#7200F1" offset="100%"></stop>
        </linearGradient>
    </defs>
    <g id="页面-1" stroke="none" stroke-width="1" fill="none" fill-rule="evenodd">
        <g id="nightingale" transform="translate(0.000000, 0.500000)">
            <g transform="translate(255.000000, 0.000000)">
                <rect id="蒙版" x="0" y="0" width="120" height="120"></rect>
                <g transform="translate(70.546875, 64.101562) rotate(45.000000) translate(-70.546875, -64.101562) translate(17.812500, 26.015625)">
                    <path d="M105.46875,29.296875 C105.46875,35.7689619 100.222087,41.015625 93.75,41.015625 C93.256954,41.015625 92.7710197,40.9851763 92.2939749,40.9260566 C87.1233542,61.1893435 68.748856,76.171875 46.875,76.171875 L46.875,76.171875 L0.46875,76.171875 C0.209866524,76.171875 -4.72792249e-15,75.9620085 -4.66451433e-15,75.703125 L-4.66451433e-15,75.703125 L-3.25808402e-15,52.734375 C-8.767581e-17,39.7902012 10.4933262,29.296875 23.4375,29.296875 L23.4375,29.296875 Z" id="形状结合" fill="url(#linearGradient-1)"></path>
                    <path d="M46.875,41.015625 C59.8191738,41.015625 70.3125,30.5222988 70.3125,17.578125 C61.5820312,17.578125 38.1445312,17.578125 23.4375,17.578125 C23.4375,30.5222988 33.9308262,41.015625 46.875,41.015625 Z" id="椭圆形" fill="url(#linearGradient-2)" transform="translate(46.875000, 29.296875) scale(-1, -1) rotate(90.000000) translate(-46.875000, -29.296875) "></path>
                    <path d="M29.296875,5.859375 C32.5329185,5.859375 35.15625,3.23604346 35.15625,-4.26785245e-14 C32.9736328,-4.26785245e-14 27.1142578,-4.26785245e-14 23.4375,-4.26785245e-14 C23.4375,3.23604346 26.0608315,5.859375 29.296875,5.859375 Z" id="椭圆形" fill="url(#linearGradient-3)" transform="translate(29.296875, 2.929687) rotate(180.000000) translate(-29.296875, -2.929687) "></path>
                    <g id="eye" transform="translate(0.000000, 29.296875)">
                        <circle id="椭圆形" fill="url(#linearGradient-4)" cx="23.4375" cy="23.4375" r="23.4375"></circle>
                        <circle id="椭圆形" fill="#FFFFFF" cx="23.4375" cy="23.4375" r="18.75"></circle>
                        <circle id="椭圆形" fill="url(#linearGradient-5)" cx="23.4375" cy="23.4375" r="14.0625"></circle>
                        <circle id="椭圆形" fill="#FFFFFF" cx="14.0625" cy="23.4375" r="4.6875"></circle>
                    </g>
                </g>
            </g>
            <g id="text" transform="translate(0.000000, 52.000000)" fill="url(#linearGradient-6)" fill-rule="nonzero">
                <path d="M138.188996,15.057724 C144.279713,15.057724 149.217214,20.0123738 149.217214,26.1242441 L149.217214,51.1236943 L142.13503,51.1236943 L142.13503,26.4918997 C142.13503,24.3049961 140.368331,22.5321605 138.188996,22.5321605 C136.009662,22.5321605 134.242962,24.3049961 134.242962,26.4918997 L134.242962,26.4918997 L134.242962,51.1236943 L127.160778,51.1236943 L127.160778,26.1242441 C127.160778,20.0123738 132.098279,15.057724 138.188996,15.057724 Z M77.7688243,0.145134689 L77.7689075,15.7853253 C78.9927848,15.3152581 80.3214497,15.057724 81.7100564,15.057724 C87.8007731,15.057724 92.7382744,20.0123738 92.7382744,26.1242441 L92.7382744,51.1236943 L85.6560906,51.1236943 L85.6560906,26.4918997 C85.6560906,24.3049961 83.889391,22.5321605 81.7100564,22.5321605 C79.6760108,22.5321605 78.001416,24.0764974 77.7871767,26.0604425 L77.7688243,26.3673447 L77.7688243,51.1236943 L70.6818383,51.1236943 L70.6818383,0.145134689 L77.7688243,0.145134689 Z M245,35.2314458 L230.392131,35.2314458 L230.392131,40.0934579 C230.392131,41.2545355 230.717554,42.1495328 231.368399,42.7784497 C232.019245,43.4073666 232.899092,43.7218252 234.00794,43.7218252 C235.406053,43.7218252 236.33411,43.3106103 236.792113,42.4881803 C237.250116,41.6657503 237.527328,40.8433206 237.623749,40.0208906 L245,40.0208906 C245,43.2622319 244.011679,45.8746563 242.035036,47.8581638 C241.070821,48.8741067 239.913762,49.6723474 238.56386,50.2528862 C237.213958,50.833425 235.695318,51.1236943 234.00794,51.1236943 C231.693822,51.1236943 229.729233,50.6399122 228.114171,49.6723474 C226.499109,48.7047827 225.257682,47.4227598 224.389888,45.8262782 C223.859569,44.8587135 223.497988,43.7460144 223.305145,42.4881803 C223.112302,41.2303462 223.01588,38.8356238 223.01588,37.3358988 L223.01588,27.8295767 C223.01588,26.3298516 223.112302,24.951072 223.305145,23.693238 C223.497988,22.4354041 223.859569,21.3227048 224.389888,20.3551402 C225.257682,18.7586586 226.499109,17.4766355 228.114171,16.5090709 C229.729233,15.5415063 231.693822,15.057724 234.00794,15.057724 C235.695318,15.057724 237.22601,15.3479934 238.600018,15.9285322 C239.974025,16.5090709 241.143137,17.3073117 242.107353,18.3232545 C244.035784,20.5002749 245,23.2336448 245,26.5233645 L245,35.2314458 Z M230.392131,29.4260583 L237.623749,29.4260583 L237.623749,28.8455195 C237.623749,27.4425508 237.298326,24.213304 236.647481,23.5118197 C235.996635,22.8103354 235.116788,22.4595932 234.00794,22.4595932 C232.899092,22.4595932 232.019245,22.8103354 231.368399,23.5118197 C230.717554,24.213304 230.392131,27.4425508 230.392131,28.8455195 L230.392131,29.4260583 Z M98.8923817,15.2028587 L98.8923817,10.4501535 L98.8923817,9.07394153 L106.268632,3.88235294 L106.268632,15.2028587 L111.902063,15.2028587 L111.902063,21.0082463 L106.268632,21.0082463 L106.268632,40.528862 C106.268632,41.3996701 106.353001,42.0769655 106.521739,42.5607477 C106.690477,43.0445298 106.967689,43.4073666 107.353375,43.6492578 C107.739062,43.8911491 108.209117,44.0362838 108.763541,44.0846619 C109.317965,44.13304 110.004969,44.1572292 110.824552,44.1572292 L110.824552,51.1236943 L107.787272,51.1236943 C106.099895,51.1236943 104.689729,50.8576142 103.556776,50.3254535 C102.423822,49.7932929 101.51987,49.1159979 100.844919,48.2935679 C100.169968,47.4711379 99.6758072,46.5398572 99.3624369,45.4997251 C99.0490667,44.4595931 98.8923817,43.455745 98.8923817,42.4881803 L98.8923817,21.0082463 L94.1122819,21.0082463 L94.1122819,15.2028587 L98.8923817,15.2028587 Z M166.500782,14.840022 C172.491651,14.840022 177.34821,19.713448 177.34821,25.7251237 L177.34821,40.2385926 C177.34821,40.4818395 177.340259,40.7232231 177.324603,40.9624954 L177.34821,40.9642661 L177.34821,54.2078065 C177.34821,60.720455 172.407498,66 166.312821,66 C160.576721,66 155.862795,61.3234192 155.327933,55.3436832 C155.326107,55.3232649 157.867623,55.2926197 159.776618,55.2846874 L161.238185,55.2845702 C161.611281,55.2871681 161.841702,55.2926995 161.8437,55.3020542 C162.308891,57.4805335 164.133203,59.1061023 166.312821,59.1061023 C168.695536,59.1061023 170.653646,57.163477 170.875768,54.679545 L170.896752,54.2078065 L170.897935,50.1922446 C169.553914,50.7910035 168.066066,51.1236943 166.500782,51.1236943 L166.139201,51.1236943 C160.148333,51.1236943 155.291774,46.2502681 155.291774,40.2385926 L155.291774,25.7251237 C155.291774,19.713448 160.148333,14.840022 166.139201,14.840022 L166.500782,14.840022 Z M166.319992,21.7339197 C164.176592,21.7339197 162.411968,23.361283 162.186211,25.4518889 L162.161811,25.9065421 L162.161811,40.0571743 C162.161811,42.3616501 164.023492,44.2297966 166.319992,44.2297966 C168.463391,44.2297966 170.228016,42.6024332 170.453773,40.5118276 L170.478172,40.0571743 L170.478172,25.9065421 C170.478172,23.6020664 168.616492,21.7339197 166.319992,21.7339197 Z M0,51.1091809 L0,4.60802639 L6.37828743,4.60802639 L16.4013105,32.6262782 L16.5314797,32.6262782 L16.5314797,4.60802639 L23.1701054,4.60802639 L23.1701054,51.1091809 L16.9219871,51.1091809 L6.76879483,23.1562397 L6.6386257,23.1562397 L6.6386257,51.1091809 L0,51.1091809 Z M189.205497,26.1492617 L182.915671,24.6831364 C183.678074,21.2621838 184.937042,18.8027122 186.692576,17.3047174 C188.44811,15.8067226 190.971062,15.057724 194.261434,15.057724 C197.190667,15.057724 199.427719,15.4933098 200.972588,16.3644841 C202.517458,17.2356584 203.620936,18.4202428 204.283023,19.9182376 C204.94511,21.4162324 205.276153,24.8306993 205.276153,28.7828558 L205.215964,39.236947 C205.215964,40.509345 205.234969,44.447405 205.272978,51.051127 L199.043065,51.051127 L199.016422,46.6631767 C197.832691,48.1505475 196.563691,49.2660755 195.209422,50.0097609 C193.855153,50.7534463 192.415616,51.125289 190.89081,51.125289 C188.342778,51.125289 186.256201,50.2169302 184.631078,48.4002132 C183.005955,46.5834959 182.193394,44.1665186 182.193394,41.1492809 C182.193394,39.236947 182.524438,37.568967 183.186525,36.1453408 C183.848611,34.7217146 184.781552,33.5849384 185.985347,32.7350122 C187.189141,31.8850861 189.115213,31.1307767 191.76356,30.472084 C194.973679,29.6859023 197.210731,28.952841 198.474715,28.2729001 C198.474715,26.4030626 198.34932,24.4865925 198.098529,23.9022683 C197.847739,23.3179441 197.386284,22.8398609 196.714165,22.4680183 C196.042047,22.0961756 195.094059,21.9102548 193.870201,21.9102548 C192.62628,21.9102548 191.648197,22.2077288 190.935952,22.8026771 C190.223706,23.3976253 189.646888,24.5131539 189.205497,26.1492617 Z M198.474715,34.1055181 C197.591932,34.4879849 196.2176,34.9341961 194.351719,35.4441518 C192.204952,36.0391001 190.800525,36.6977928 190.138438,37.4202301 C189.476351,38.1426674 189.145307,39.0775859 189.145307,40.2249863 C189.145307,41.5211236 189.511461,42.6100913 190.24377,43.4918897 C190.976078,44.3736882 191.893971,44.8145874 192.99745,44.8145874 C193.980549,44.8145874 194.953616,44.4586809 195.916651,43.7468678 C196.879687,43.0350544 197.54679,42.1904405 197.91796,41.2130255 C198.28913,40.2356105 198.474715,38.4613897 198.474715,35.8903631 L198.474715,34.1055181 Z M53.8321674,14.840022 C59.8230361,14.840022 64.679595,19.713448 64.679595,25.7251237 L64.679595,40.2385926 C64.679595,40.4818395 64.6716439,40.7232231 64.6559881,40.9624954 L64.679595,40.9642661 L64.679595,54.2078065 C64.679595,60.720455 59.7388832,66 53.6442061,66 C47.9081066,66 43.1941805,61.3234192 42.6593181,55.3436832 C42.6574921,55.3232649 45.1990086,55.2926197 47.1080036,55.2846874 L48.5695701,55.2845702 C48.9426666,55.2871681 49.1730877,55.2926995 49.1750851,55.3020542 C49.6402759,57.4805335 51.4645883,59.1061023 53.6442061,59.1061023 C56.0269217,59.1061023 57.9850317,57.163477 58.207153,54.679545 L58.228137,54.2078065 L58.2293204,50.1922446 C56.8852992,50.7910035 55.3974509,51.1236943 53.8321674,51.1236943 L53.4705865,51.1236943 C47.4797178,51.1236943 42.6231589,46.2502681 42.6231589,40.2385926 L42.6231589,25.7251237 C42.6231589,19.713448 47.4797178,14.840022 53.4705865,14.840022 L53.8321674,14.840022 Z M53.651377,21.7339197 C51.5079773,21.7339197 49.7433529,23.361283 49.5175959,25.4518889 L49.4931964,25.9065421 L49.4931964,40.0571743 C49.4931964,42.3616501 51.3548771,44.2297966 53.651377,44.2297966 C55.7947766,44.2297966 57.559401,42.6024332 57.7851581,40.5118276 L57.8095575,40.0571743 L57.8095575,25.9065421 C57.8095575,23.6020664 55.9478768,21.7339197 53.651377,21.7339197 Z M29.1072641,51.1236943 L29.1072641,15.057724 L36.4835149,15.057724 L36.4835149,51.1236943 L29.1072641,51.1236943 Z M32.7881579,0.181418362 C34.9848097,0.181418362 36.765548,1.96834124 36.765548,4.17262232 C36.765548,6.37690338 34.9848097,8.16382628 32.7881579,8.16382628 C30.591506,8.16382628 28.8107677,6.37690338 28.8107677,4.17262232 C28.8107677,1.96834124 30.591506,0.181418362 32.7881579,0.181418362 Z M209.782018,0 L217.158269,0 L217.158269,40.31116 C217.158269,41.7141288 217.411376,42.6695987 217.917589,43.1775701 C218.423802,43.6855415 219.375965,44.0120946 220.774078,44.1572292 L220.774078,51.1236943 C219.086701,51.1236943 217.568061,50.9906541 216.218159,50.7245739 C214.868257,50.4584938 213.711198,49.9384276 212.746982,49.164376 C211.782766,48.4387026 211.047552,47.4106653 210.541338,46.0802639 C210.035125,44.7498624 209.782018,42.9961517 209.782018,40.8191314 L209.782018,0 Z M113.789516,51.0874107 L113.789516,15.0214404 L121.165766,15.0214404 L121.165766,51.0874107 L113.789516,51.0874107 Z M117.470409,0.108851017 C119.667061,0.108851017 121.4478,1.89577389 121.4478,4.10005498 C121.4478,6.30433604 119.667061,8.09125893 117.470409,8.09125893 C115.273758,8.09125893 113.493019,6.30433604 113.493019,4.10005498 C113.493019,1.89577389 115.273758,0.108851017 117.470409,0.108851017 Z" id="Nightingale"></path>
            </g>
        </g>
    </g>
</svg>