<?xml version="1.0" encoding="UTF-8"?>
<svg width="82px" height="16px" viewBox="0 0 82 16" version="1.1" xmlns="http://www.w3.org/2000/svg" xmlns:xlink="http://www.w3.org/1999/xlink">
    <title>logo-英文</title>
    <defs>
        <rect id="path-1" x="0" y="0" width="82" height="16"></rect>
    </defs>
    <g id="页面-1" stroke="none" stroke-width="1" fill="none" fill-rule="evenodd">
        <g id="logo-英文">
            <mask id="mask-2" fill="white">
                <use xlink:href="#path-1"></use>
            </mask>
            <use id="蒙版" fill="#FFFFFF" opacity="0" xlink:href="#path-1"></use>
            <g id="编组-40" mask="url(#mask-2)">
                <g transform="translate(0.000000, 0.987805)">
                    <rect id="矩形" stroke="none" fill="#6C53B1" fill-rule="evenodd" x="0" y="0" width="10.2939666" height="1.8" rx="0.9"></rect>
                    <polyline id="矩形" stroke="#2D0B90" stroke-width="1.8" fill="none" stroke-linecap="round" stroke-linejoin="round" transform="translate(5.146983, 9.722080) rotate(-90.000000) translate(-5.146983, -9.722080) " points="1.14377407 5.71887035 9.15019255 5.71887035 9.15019255 13.7252888"></polyline>
                    <polyline id="矩形备份-13" stroke="#2D0B90" stroke-width="1.8" fill="none" stroke-linecap="round" stroke-linejoin="round" transform="translate(20.560541, 7.434531) scale(1, -1) rotate(-90.000000) translate(-20.560541, -7.434531) " points="14.2697837 -0.544494864 26.8512985 -0.544494864 26.8512985 5.17437548 14.2697837 9.94220092 26.8512985 15.4135578"></polyline>
                    <path d="M63.9965635,1.14377407 L68.0151771,1.14377407 C69.6720314,1.14377407 71.0151771,2.48691982 71.0151771,4.14377407 L71.0151771,10.7252888 C71.0151771,12.3821431 69.6720314,13.7252888 68.0151771,13.7252888 L63.6128849,13.7252888 L63.6128849,13.7252888 L58.3969024,1.14377407 L52.9255456,13.7252888" id="矩形备份-31" stroke="#2D0B90" stroke-width="1.8" fill="none" stroke-linecap="round" stroke-linejoin="round" transform="translate(61.970361, 7.434531) scale(-1, 1) translate(-61.970361, -7.434531) "></path>
                    <polyline id="路径-8" stroke="#2D0B90" stroke-width="1.8" fill="none" stroke-linecap="round" stroke-linejoin="round" points="37.9005135 1.14377407 31.0378691 1.14377407 31.0378691 6.95728822 37.9005135 6.95728822 37.9005135 13.7252888 31.0378691 13.7252888"></polyline>
                    <line x1="41.4519711" y1="1.14377407" x2="41.4519711" y2="13.7252888" id="路径-13" stroke="#2D0B90" stroke-width="1.8" fill="none" stroke-linecap="round"></line>
                    <line x1="49.4583896" y1="1.14377407" x2="49.4583896" y2="13.7252888" id="路径-13备份" stroke="#2D0B90" stroke-width="1.8" fill="none" stroke-linecap="round"></line>
                    <line x1="75.8530167" y1="1.14377407" x2="75.8530167" y2="13.7252888" id="路径-13备份-3" stroke="#2D0B90" stroke-width="1.8" fill="none" stroke-linecap="round"></line>
                    <line x1="48.3504493" y1="6.86264442" x2="41.4519711" y2="6.86264442" id="路径-13备份-2" stroke="#2D0B90" stroke-width="1.8" fill="none" stroke-linecap="round"></line>
                    <rect id="矩形备份-34" stroke="none" fill="#2D0B90" fill-rule="evenodd" x="70.7060334" y="0" width="10.2939666" height="1.8" rx="0.9"></rect>
                </g>
            </g>
        </g>
    </g>
</svg>