<?xml version="1.0" encoding="UTF-8"?>
<svg width="135px" height="130px" viewBox="0 0 135 130" version="1.1" xmlns="http://www.w3.org/2000/svg" xmlns:xlink="http://www.w3.org/1999/xlink">
    <title>nightingale</title>
    <defs>
        <linearGradient x1="-1.78957223e-14%" y1="50%" x2="100%" y2="50%" id="linearGradient-1">
            <stop stop-color="#6C53B1" stop-opacity="0.08" offset="0%"></stop>
            <stop stop-color="#6C53B1" stop-opacity="0.8" offset="100%"></stop>
        </linearGradient>
        <radialGradient cx="100%" cy="50%" fx="100%" fy="50%" r="100%" id="radialGradient-2">
            <stop stop-color="#6C53B1" stop-opacity="0.4" offset="0%"></stop>
            <stop stop-color="#6C53B1" offset="100%"></stop>
        </radialGradient>
    </defs>
    <g id="页面-1" stroke="none" stroke-width="1" fill="none" fill-rule="evenodd">
        <g id="nightingale" transform="translate(-255.000000, 0.881904)">
            <g transform="translate(255.000000, 0.000000)">
                <rect id="蒙版" x="0" y="0.118096338" width="120" height="120"></rect>
                <g transform="translate(70.546875, 64.219659) rotate(45.000000) translate(-70.546875, -64.219659) translate(17.812500, 26.133721)">
                    <path d="M105.46875,29.296875 C105.46875,35.7689619 100.222087,41.015625 93.75,41.015625 C93.256954,41.015625 92.7710197,40.9851763 92.2939749,40.9260566 C87.1233542,61.1893435 68.748856,76.171875 46.875,76.171875 L46.875,76.171875 L0.46875,76.171875 C0.209866524,76.171875 -7.43709552e-14,75.9620085 -7.4307547e-14,75.703125 L-7.4307547e-14,75.703125 L-7.29011167e-14,52.734375 C-6.97307085e-14,39.7902012 10.4933262,29.296875 23.4375,29.296875 L23.4375,29.296875 Z" id="形状结合" fill="#FFFFFF"></path>
                    <path d="M46.875,41.015625 C59.8191738,41.015625 70.3125,30.5222988 70.3125,17.578125 C61.5820313,17.578125 38.1445313,17.578125 23.4375,17.578125 C23.4375,30.5222988 33.9308262,41.015625 46.875,41.015625 Z" id="椭圆形" fill="#FFFFFF" transform="translate(46.875000, 29.296875) scale(-1, -1) rotate(90.000000) translate(-46.875000, -29.296875) "></path>
                    <path d="M29.296875,5.859375 C32.5329185,5.859375 35.15625,3.23604346 35.15625,-1.46876771e-14 C32.9736328,-1.46876771e-14 27.1142578,-1.46876771e-14 23.4375,-1.46876771e-14 C23.4375,3.23604346 26.0608315,5.859375 29.296875,5.859375 Z" id="椭圆形" fill="#FFFFFF" transform="translate(29.296875, 2.929687) rotate(180.000000) translate(-29.296875, -2.929687) "></path>
                    <g id="eye" transform="translate(0.000000, 29.296875)">
                        <circle id="椭圆形" fill="url(#linearGradient-1)" cx="23.4375" cy="23.4375" r="23.4375"></circle>
                        <circle id="椭圆形" fill="#FFFFFF" cx="23.4375" cy="23.4375" r="18.75"></circle>
                        <circle id="椭圆形" fill="url(#radialGradient-2)" cx="23.4375" cy="23.4375" r="14.0625"></circle>
                        <circle id="椭圆形" fill="#FFFFFF" cx="14.0625" cy="23.4375" r="4.6875"></circle>
                    </g>
                </g>
            </g>
        </g>
    </g>
</svg>