<?xml version="1.0" encoding="UTF-8"?>
<svg width="122px" height="32px" viewBox="0 0 122 32" version="1.1" xmlns="http://www.w3.org/2000/svg" xmlns:xlink="http://www.w3.org/1999/xlink">
    <title>logo-展开</title>
    <defs>
        <rect id="path-1" x="0" y="0" width="82" height="16"></rect>
        <rect id="path-3" x="0" y="0" width="32" height="32"></rect>
        <filter x="-25.0%" y="-25.0%" width="150.0%" height="150.0%" filterUnits="objectBoundingBox" id="filter-5">
            <feOffset dx="0" dy="0" in="SourceAlpha" result="shadowOffsetOuter1"></feOffset>
            <feGaussianBlur stdDeviation="2" in="shadowOffsetOuter1" result="shadowBlurOuter1"></feGaussianBlur>
            <feColorMatrix values="0 0 0 0 0   0 0 0 0 0   0 0 0 0 0  0 0 0 0.2 0" type="matrix" in="shadowBlurOuter1" result="shadowMatrixOuter1"></feColorMatrix>
            <feMerge>
                <feMergeNode in="shadowMatrixOuter1"></feMergeNode>
                <feMergeNode in="SourceGraphic"></feMergeNode>
            </feMerge>
        </filter>
        <linearGradient x1="0%" y1="100%" x2="100%" y2="50%" id="linearGradient-6">
            <stop stop-color="#0019F4" offset="0%"></stop>
            <stop stop-color="#7200F1" offset="100%"></stop>
        </linearGradient>
    </defs>
    <g id="页面-1" stroke="none" stroke-width="1" fill="none" fill-rule="evenodd">
        <g id="logo-展开">
            <g id="logo-英文备份" transform="translate(40.000000, 8.000000)">
                <mask id="mask-2" fill="white">
                    <use xlink:href="#path-1"></use>
                </mask>
                <use id="蒙版" fill="#FFFFFF" opacity="0" xlink:href="#path-1"></use>
                <g id="编组-40" mask="url(#mask-2)">
                    <g transform="translate(0.000000, 0.987805)">
                        <rect id="矩形" stroke="none" fill="#6C53B1" fill-rule="evenodd" x="0" y="0" width="10.2939666" height="1.8" rx="0.9"></rect>
                        <polyline id="矩形" stroke="#2D0B90" stroke-width="1.8" fill="none" stroke-linecap="round" stroke-linejoin="round" transform="translate(5.146983, 9.722080) rotate(-90.000000) translate(-5.146983, -9.722080) " points="1.14377407 5.71887035 9.15019255 5.71887035 9.15019255 13.7252888"></polyline>
                        <polyline id="矩形备份-13" stroke="#2D0B90" stroke-width="1.8" fill="none" stroke-linecap="round" stroke-linejoin="round" transform="translate(20.560541, 7.434531) scale(1, -1) rotate(-90.000000) translate(-20.560541, -7.434531) " points="14.2697837 -0.544494864 26.8512985 -0.544494864 26.8512985 5.17437548 14.2697837 9.94220092 26.8512985 15.4135578"></polyline>
                        <path d="M63.9965635,1.14377407 L68.0151771,1.14377407 C69.6720314,1.14377407 71.0151771,2.48691982 71.0151771,4.14377407 L71.0151771,10.7252888 C71.0151771,12.3821431 69.6720314,13.7252888 68.0151771,13.7252888 L63.6128849,13.7252888 L63.6128849,13.7252888 L58.3969024,1.14377407 L52.9255456,13.7252888" id="矩形备份-31" stroke="#2D0B90" stroke-width="1.8" fill="none" stroke-linecap="round" stroke-linejoin="round" transform="translate(61.970361, 7.434531) scale(-1, 1) translate(-61.970361, -7.434531) "></path>
                        <polyline id="路径-8" stroke="#2D0B90" stroke-width="1.8" fill="none" stroke-linecap="round" stroke-linejoin="round" points="37.9005135 1.14377407 31.0378691 1.14377407 31.0378691 6.95728822 37.9005135 6.95728822 37.9005135 13.7252888 31.0378691 13.7252888"></polyline>
                        <line x1="41.4519711" y1="1.14377407" x2="41.4519711" y2="13.7252888" id="路径-13" stroke="#2D0B90" stroke-width="1.8" fill="none" stroke-linecap="round"></line>
                        <line x1="49.4583896" y1="1.14377407" x2="49.4583896" y2="13.7252888" id="路径-13备份" stroke="#2D0B90" stroke-width="1.8" fill="none" stroke-linecap="round"></line>
                        <line x1="75.8530167" y1="1.14377407" x2="75.8530167" y2="13.7252888" id="路径-13备份-3" stroke="#2D0B90" stroke-width="1.8" fill="none" stroke-linecap="round"></line>
                        <line x1="48.3504493" y1="6.86264442" x2="41.4519711" y2="6.86264442" id="路径-13备份-2" stroke="#2D0B90" stroke-width="1.8" fill="none" stroke-linecap="round"></line>
                        <rect id="矩形备份-34" stroke="none" fill="#2D0B90" fill-rule="evenodd" x="70.7060334" y="0" width="10.2939666" height="1.8" rx="0.9"></rect>
                    </g>
                </g>
            </g>
            <g id="logo备份">
                <mask id="mask-4" fill="white">
                    <use xlink:href="#path-3"></use>
                </mask>
                <use id="蒙版" fill="#FFFFFF" opacity="0" xlink:href="#path-3"></use>
                <g filter="url(#filter-5)" mask="url(#mask-4)">
                    <rect id="矩形" fill="url(#linearGradient-6)" x="0" y="0" width="32" height="32" rx="2.84444444"></rect>
                    <g id="logo" transform="translate(5.000000, 7.000000)">
                        <path d="M12.5866107,0 C12.0494773,3.22285587 8.18639679,1.1393594 10.9540224,5.23066668" id="路径-2" stroke="#FFFFFF" stroke-width="1.99111111" stroke-linecap="round" stroke-linejoin="round"></path>
                        <g id="编组" transform="translate(0.000000, 1.625891)" fill="#FFFFFF">
                            <path d="M19.8197109,0 C20.530822,0 21.0641554,1.54074074 21.4197109,4.62222222 L22.5807799,15.5694442 C22.6222014,15.9599896 22.3391806,16.3101679 21.9486352,16.3515894 C21.9237224,16.3542317 21.8986875,16.3555556 21.873635,16.3555556 L0.711111111,16.3555556 C0.318375289,16.3555556 -4.11629064e-13,16.0371803 -4.11670698e-13,15.6444444 C-4.11670698e-13,15.6158435 0.00172549724,15.5872686 0.00516708833,15.5588755 L1.33082203,4.62222222 C1.68637758,1.54074074 2.21971092,0 2.93082203,0 C3.64193314,0 4.53082203,1.3037037 5.59748869,3.91111111 C7.01971092,3.43703704 8.91600721,3.2 11.2863776,3.2 C13.656748,3.2 15.5530442,3.43703704 16.9752665,3.91111111 C18.1604517,1.3037037 19.1085998,0 19.8197109,0 Z M16.0863776,8.17777778 C14.2208824,8.17777778 12.7085998,9.37168511 12.7085998,10.8444444 C12.7085998,12.3172038 14.2208824,13.5111111 16.0863776,13.5111111 C17.9518727,13.5111111 19.4641554,12.3172038 19.4641554,10.8444444 C19.4641554,9.37168511 17.9518727,8.17777778 16.0863776,8.17777778 Z M6.48637758,8.17777778 C4.62088243,8.17777778 3.10859981,9.37168511 3.10859981,10.8444444 C3.10859981,12.3172038 4.62088243,13.5111111 6.48637758,13.5111111 C8.35187274,13.5111111 9.86415536,12.3172038 9.86415536,10.8444444 C9.86415536,9.37168511 8.35187274,8.17777778 6.48637758,8.17777778 Z" id="形状结合"></path>
                            <path d="M6.48637758,8.88888889 C7.56640109,8.88888889 8.44193314,9.76442093 8.44193314,10.8444444 C8.44193314,11.924468 7.56640109,12.8 6.48637758,12.8 C5.40635407,12.8 4.53082203,11.924468 4.53082203,10.8444444 C4.53082203,9.76442093 5.40635407,8.88888889 6.48637758,8.88888889 Z M6.48637758,9.24444444 C6.29000967,9.24444444 6.13082203,9.96078884 6.13082203,10.8444444 C6.13082203,11.7281 6.29000967,12.4444444 6.48637758,12.4444444 C6.68274549,12.4444444 6.84193314,11.7281 6.84193314,10.8444444 C6.84193314,9.96078884 6.68274549,9.24444444 6.48637758,9.24444444 Z" id="形状结合"></path>
                            <path d="M16.0863776,8.88888889 C17.1664011,8.88888889 18.0419331,9.76442093 18.0419331,10.8444444 C18.0419331,11.924468 17.1664011,12.8 16.0863776,12.8 C15.0063541,12.8 14.130822,11.924468 14.130822,10.8444444 C14.130822,9.76442093 15.0063541,8.88888889 16.0863776,8.88888889 Z M16.0863776,9.24444444 C15.8900097,9.24444444 15.730822,9.96078884 15.730822,10.8444444 C15.730822,11.7281 15.8900097,12.4444444 16.0863776,12.4444444 C16.2827455,12.4444444 16.4419331,11.7281 16.4419331,10.8444444 C16.4419331,9.96078884 16.2827455,9.24444444 16.0863776,9.24444444 Z" id="形状结合"></path>
                        </g>
                    </g>
                </g>
            </g>
        </g>
    </g>
</svg>