<?xml version="1.0" encoding="UTF-8"?>
<svg width="16px" height="16px" viewBox="0 0 16 16" version="1.1" xmlns="http://www.w3.org/2000/svg" xmlns:xlink="http://www.w3.org/1999/xlink">
    <title>监控对象</title>
    <defs>
        <filter color-interpolation-filters="auto" id="filter-1">
            <feColorMatrix in="SourceGraphic" type="matrix" values="0 0 0 0 0.400000 0 0 0 0 0.400000 0 0 0 0 0.400000 0 0 0 1.000000 0"></feColorMatrix>
        </filter>
    </defs>
    <g id="页面-1" stroke="none" stroke-width="1" fill="none" fill-rule="evenodd">
        <g filter="url(#filter-1)" id="监控对象">
            <g>
                <rect id="矩形" fill-opacity="0.01" fill="#FFFFFF" fill-rule="nonzero" x="0" y="0" width="16" height="16"></rect>
                <polygon id="路径" fill-opacity="0" fill="#FFFFFF" fill-rule="nonzero" points="16 0 0 0 0 16 16 16"></polygon>
                <path d="M8,1 C11.31372,1 14,3.68628 14,7 C14,10.31372 11.31372,13 8,13 C4.68628,13 2,10.31372 2,7 C2,3.68628 4.68628,1 8,1 Z M8,2 C5.23856475,2 3,4.23856475 3,7 C3,9.76143525 5.23856475,12 8,12 C10.7614353,12 13,9.76143525 13,7 C13,4.23856475 10.7614353,2 8,2 Z" id="路径" fill="#666666" fill-rule="nonzero"></path>
                <path d="M8,4.5 C6.61929096,4.5 5.5,5.61929096 5.5,7 C5.5,8.38070904 6.61929096,9.5 8,9.5 C9.38070904,9.5 10.5,8.38070904 10.5,7 C10.5,5.61929096 9.38070904,4.5 8,4.5 Z M8,5.5 C8.82842429,5.5 9.5,6.17157571 9.5,7 C9.5,7.82842429 8.82842429,8.5 8,8.5 C7.17157571,8.5 6.5,7.82842429 6.5,7 C6.5,6.17157571 7.17157571,5.5 8,5.5 Z" id="路径" fill="#666666" fill-rule="nonzero"></path>
                <path d="M9.53456667,11.8333333 L6.4562,11.8333333 C6.26408593,11.8333333 6.08896118,11.9434058 6.00565464,12.116518 L4.88278797,14.4498514 C4.7230417,14.7818064 4.96494081,15.1666667 5.33333333,15.1666667 L10.6666667,15.1666667 C11.0357574,15.1666667 11.2776293,14.7804762 11.1165142,14.4484071 L9.98441415,12.1150738 C9.9008054,11.9427506 9.72610179,11.8333333 9.53456667,11.8333333 Z M9.221,12.833 L9.868,14.166 L6.128,14.166 L6.77,12.833 L9.221,12.833 Z" id="路径" fill="#666666" fill-rule="nonzero"></path>
                <path d="M12,14.1666667 C12.2761424,14.1666667 12.5,14.3905243 12.5,14.6666667 C12.5,14.9121266 12.3231248,15.116275 12.0898756,15.158611 L12,15.1666667 L4,15.1666667 C3.72385763,15.1666667 3.5,14.942809 3.5,14.6666667 C3.5,14.4212068 3.67687516,14.2170583 3.91012437,14.1747223 L4,14.1666667 L12,14.1666667 Z" id="路径" fill="#666666" fill-rule="nonzero"></path>
            </g>
        </g>
    </g>
</svg>