<!--
  ~ Copyright 2022 Nightingale Team
  ~
  ~ Licensed under the Apache License, Version 2.0 (the "License");
  ~ you may not use this file except in compliance with the License.
  ~ You may obtain a copy of the License at
  ~
  ~ http://www.apache.org/licenses/LICENSE-2.0
  ~
  ~ Unless required by applicable law or agreed to in writing, software
  ~ distributed under the License is distributed on an "AS IS" BASIS,
  ~ WITHOUT WARRANTIES OR CONDITIONS OF ANY KIND, either express or implied.
  ~ See the License for the specific language governing permissions and
  ~ limitations under the License.
  ~
-->
<?xml version="1.0" standalone="no"?><!DOCTYPE svg PUBLIC "-//W3C//DTD SVG 1.1//EN" "http://www.w3.org/Graphics/SVG/1.1/DTD/svg11.dtd"><svg t="1630148664217" class="icon" viewBox="0 0 1024 1024" version="1.1" xmlns="http://www.w3.org/2000/svg" p-id="2188" xmlns:xlink="http://www.w3.org/1999/xlink" width="200" height="200"><defs><style type="text/css"></style></defs><path d="M735.873372 640.217077a126.520437 126.520437 0 0 1-110.017772-63.96382H352.090449v255.855282h273.765151a126.520437 126.520437 0 0 1 110.017772-63.963821 127.927641 127.927641 0 0 1 0 255.855282 126.520437 126.520437 0 0 1-110.017772-63.96382H288.126628a63.96382 63.96382 0 0 1-63.96382-63.963821V238.716176a127.927641 127.927641 0 1 1 127.927641 0V448.325616h273.765151a126.520437 126.520437 0 0 1 110.017772-63.963821 127.927641 127.927641 0 0 1 0 255.855282z" p-id="2189"></path></svg>