<?xml version="1.0" encoding="UTF-8"?>
<svg width="16px" height="16px" viewBox="0 0 16 16" version="1.1" xmlns="http://www.w3.org/2000/svg" xmlns:xlink="http://www.w3.org/1999/xlink">
    <title>水-16像素</title>
    <defs>
        <rect id="path-1" x="0" y="0" width="16" height="16"></rect>
        <linearGradient x1="2.34417651%" y1="96.6848817%" x2="84.6327486%" y2="17.0357975%" id="linearGradient-3">
            <stop stop-color="#A9EFDC" offset="0%"></stop>
            <stop stop-color="#70DAB7" offset="100%"></stop>
        </linearGradient>
    </defs>
    <g id="页面-1" stroke="none" stroke-width="1" fill="none" fill-rule="evenodd">
        <g id="水-16像素">
            <mask id="mask-2" fill="white">
                <use xlink:href="#path-1"></use>
            </mask>
            <use id="蒙版" fill="#FFFFFF" opacity="0" xlink:href="#path-1"></use>
            <g id="编组-6" mask="url(#mask-2)">
                <g transform="translate(-0.000000, 1.000000)" id="椭圆形">
                    <path d="M8.59635331,12.0078364 C9.6355878,12.0078364 10.442355,11.6388266 11.1568106,11.1514054 C12.3778915,10.3183504 13.1616412,8.9570482 13.1616412,7.18088559 C13.1616412,4.36548848 10.8793109,2.08315818 8.06391384,2.08315818 C6.62033762,2.08315818 4.42272234,2.91193284 3.37801589,4.82603424 C2.38523829,6.64499207 2.48238753,9.47760886 2.53704906,10.3240607 C2.56796066,10.802737 2.70312676,11.6573116 2.94254737,12.8877843 L2.9425249,12.8877887 C2.98472059,13.1046482 3.19472635,13.2462412 3.41158589,13.2040456 C3.48176187,13.190391 3.54699617,13.158179 3.60050046,13.1107616 C4.02830503,12.7316263 4.34963468,12.4785394 4.56448942,12.3515011 C4.85896361,12.1773857 5.19685638,12.0372283 5.57816771,11.9310288" stroke="#70DAB7" stroke-width="1" fill="none" stroke-linecap="round" transform="translate(7.833670, 7.833671) rotate(-225.000000) translate(-7.833670, -7.833671) "></path>
                    <circle stroke="none" fill="#70DAB7" fill-rule="evenodd" cx="5.55163134" cy="4.3933137" r="1"></circle>
                    <path d="M5.31793274,13.5820232 C6.32291745,13.5591311 7.34348953,13.5476851 8.37964898,13.5476851 C10.2279363,13.5476851 11.7262691,12.0493522 11.7262691,10.2010649 C11.7262691,8.3527776 10.2279363,6.85444472 8.37964898,6.85444472 C6.53136169,6.85444472 5.0330288,8.3527776 5.0330288,10.2010649 C5.0330288,10.7669741 5.22008138,11.3762678 5.18017009,11.8997951 C5.15701626,12.2035101 5.07249991,12.5916584 4.92662103,13.06424 L4.92671089,13.0642677 C4.86156716,13.275304 4.97983641,13.4991921 5.19087266,13.5643359 C5.23199825,13.5770307 5.27490353,13.5830033 5.31793274,13.5820232 Z" stroke="none" fill="url(#linearGradient-3)" fill-rule="evenodd" transform="translate(8.237737, 10.225345) rotate(-225.000000) translate(-8.237737, -10.225345) "></path>
                </g>
            </g>
        </g>
    </g>
</svg>