<?xml version="1.0" encoding="UTF-8"?>
<svg width="40px" height="48px" viewBox="0 0 40 48" version="1.1" xmlns="http://www.w3.org/2000/svg" xmlns:xlink="http://www.w3.org/1999/xlink">
    <title>水</title>
    <defs>
        <rect id="path-1" x="0" y="0" width="40" height="48"></rect>
        <linearGradient x1="2.34417651%" y1="96.6848817%" x2="84.6327486%" y2="17.0357975%" id="linearGradient-3">
            <stop stop-color="#A9EFDC" offset="0%"></stop>
            <stop stop-color="#70DAB7" offset="100%"></stop>
        </linearGradient>
    </defs>
    <g id="页面-1" stroke="none" stroke-width="1" fill="none" fill-rule="evenodd">
        <g id="水">
            <mask id="mask-2" fill="white">
                <use xlink:href="#path-1"></use>
            </mask>
            <use id="蒙版" fill="#FFFFFF" opacity="0" xlink:href="#path-1"></use>
            <g id="编组-6" mask="url(#mask-2)">
                <g transform="translate(-7.500000, 0.974303)" id="椭圆形">
                    <path d="M28.8975055,40.3655488 C32.3909966,40.3655488 35.1030256,39.1250853 37.5047399,37.4865697 C41.609526,34.6861718 44.2441796,30.1100176 44.2441796,24.1392685 C44.2441796,14.6750282 36.571897,7.00274556 27.1076567,7.00274556 C22.2549302,7.00274556 14.8674256,9.78875484 11.3555398,16.223199 C8.01821819,22.3378086 8.34479514,31.8599346 8.52854535,34.7053675 C8.64481282,36.5058077 9.19983543,39.8882157 10.1936132,44.8525914 L10.1935886,44.8525963 C10.236954,45.0692262 10.4477218,45.2096849 10.6643517,45.1663195 C10.752241,45.1487257 10.831675,45.102124 10.8899132,45.0339889 C12.6759957,42.9443841 14.0201892,41.6328265 14.9224938,41.0993159 C15.9123983,40.5140096 17.1654318,40.1258909 18.6815941,39.9349597" stroke="#70DAB7" stroke-width="1.4" fill="none" stroke-linecap="round" transform="translate(26.333671, 26.333671) rotate(-225.000000) translate(-26.333671, -26.333671) "></path>
                    <circle stroke="none" fill="#70DAB7" fill-rule="evenodd" cx="18.6623666" cy="14.7685655" r="1.25"></circle>
                    <path d="M16.5440712,45.6897587 C20.3519416,45.5911894 24.2269286,45.5419047 28.1690321,45.5419047 C34.3822355,45.5419047 39.4190321,40.5051081 39.4190321,34.2919047 C39.4190321,28.0787013 34.3822355,23.0419047 28.1690321,23.0419047 C21.9558286,23.0419047 16.9190321,28.0787013 16.9190321,34.2919047 C16.9190321,36.1942653 17.5478281,38.2424675 17.4136623,40.002357 C17.316391,41.2782904 16.8969531,42.997517 16.1553485,45.1600368 L16.1552543,45.1600045 C16.083574,45.3690241 16.1949096,45.5965764 16.4039293,45.6682566 C16.4489907,45.6837097 16.4964497,45.6909914 16.5440712,45.6897587 Z" stroke="none" fill="url(#linearGradient-3)" fill-rule="evenodd" transform="translate(27.691980, 34.373525) rotate(-225.000000) translate(-27.691980, -34.373525) "></path>
                </g>
            </g>
        </g>
    </g>
</svg>