<?xml version="1.0" encoding="UTF-8"?>
<svg width="16px" height="16px" viewBox="0 0 16 16" version="1.1" xmlns="http://www.w3.org/2000/svg" xmlns:xlink="http://www.w3.org/1999/xlink">
    <title>系统设置</title>
    <g id="页面-1" stroke="none" stroke-width="1" fill="none" fill-rule="evenodd">
        <g id="系统设置" fill-rule="nonzero">
            <rect id="矩形" fill-opacity="0" fill="#FFFFFF" x="0" y="0" width="16" height="16"></rect>
            <path d="M10.7614786,1.83333333 L5.23867359,1.83333333 C4.70713185,1.83333333 4.21528528,2.11464019 3.94577891,2.57279184 L1.20062597,7.23945851 C0.924485539,7.70888786 0.924485539,8.29111214 1.20062597,8.76054149 L3.94577891,13.4272082 C4.21528528,13.8853598 4.70713185,14.1666667 5.23867359,14.1666667 L10.7614786,14.1666667 C11.293032,14.1666667 11.7848876,13.8853475 12.0543899,13.4271799 L14.7994056,8.76051324 C15.0755238,8.29109809 15.0755238,7.70890191 14.7994056,7.23948676 L12.0543899,2.57282009 C11.7848876,2.11465247 11.293032,1.83333333 10.7614786,1.83333333 Z M5.23867359,2.83333333 L10.7614786,2.83333333 C10.9386631,2.83333333 11.1026149,2.92710638 11.192449,3.07982892 L13.9374647,7.74649559 C14.0295041,7.9029673 14.0295041,8.0970327 13.9374647,8.25350441 L11.192449,12.9201711 C11.1026149,13.0728936 10.9386631,13.1666667 10.7614786,13.1666667 L5.23867359,13.1666667 C5.06149301,13.1666667 4.89754415,13.0728977 4.8077087,12.9201805 L2.06255575,8.25351383 C1.97050894,8.09703738 1.97050894,7.90296262 2.06255575,7.74648617 L4.8077087,3.0798195 C4.89754415,2.92710228 5.06149301,2.83333333 5.23867359,2.83333333 Z" id="路径" fill="#666666"></path>
            <path d="M8,5.83333333 C6.80339096,5.83333333 5.83333333,6.80339096 5.83333333,8 C5.83333333,9.19660904 6.80339096,10.1666667 8,10.1666667 C9.19660904,10.1666667 10.1666667,9.19660904 10.1666667,8 C10.1666667,6.80339096 9.19660904,5.83333333 8,5.83333333 Z M8,6.83333333 C8.64432429,6.83333333 9.16666667,7.35567571 9.16666667,8 C9.16666667,8.64432429 8.64432429,9.16666667 8,9.16666667 C7.35567571,9.16666667 6.83333333,8.64432429 6.83333333,8 C6.83333333,7.35567571 7.35567571,6.83333333 8,6.83333333 Z" id="路径" fill="#666666"></path>
        </g>
    </g>
</svg>